<?xml version="1.0" standalone="no"?>
<!DOCTYPE svg PUBLIC "-//W3C//DTD SVG 1.1//EN" "http://www.w3.org/Graphics/SVG/1.1/DTD/svg11.dtd" >
<svg xmlns="http://www.w3.org/2000/svg">
<metadata></metadata>
<defs>
<font id="clear_sansitalic" horiz-adv-x="1151" >
<font-face units-per-em="2048" ascent="1489" descent="-559" />
<missing-glyph horiz-adv-x="543" />
<glyph unicode="&#xfb01;" horiz-adv-x="1120" d="M82 0l192 905h-149l29 144h149l23 102q21 97 50.5 166.5t74.5 114.5t109.5 66.5t156.5 21.5q52 0 100 -13t88 -34l-61 -144q-26 17 -61.5 29t-77.5 12t-75.5 -10.5t-58.5 -33.5t-43 -61.5t-30 -93.5l-27 -122h229l-28 -144h-230l-192 -905h-168zM673 0l221 1049h170 l-221 -1049h-170zM915 1278q0 71 32 105t101 34q50 0 71 -19t21 -48q0 -62 -29.5 -100t-99.5 -38q-29 0 -48 5t-29.5 13.5t-14.5 20.5t-4 27z" />
<glyph unicode="&#xfb02;" horiz-adv-x="1137" d="M82 0l192 905h-149l29 144h149l23 102q21 97 50.5 166.5t74.5 114.5t109.5 66.5t156.5 21.5q52 0 100 -13t88 -34l-61 -144q-26 17 -61.5 29t-77.5 12t-75.5 -10.5t-58.5 -33.5t-43 -61.5t-30 -93.5l-27 -122h229l-28 -144h-230l-192 -905h-168zM681 0l316 1489h170 l-316 -1489h-170z" />
<glyph unicode="&#xfb03;" horiz-adv-x="1741" d="M82 0l192 905h-149l29 144h149l23 102q21 97 50.5 166.5t74.5 114.5t109.5 66.5t156.5 21.5q52 0 100 -13t88 -34l-61 -144q-26 17 -61.5 29t-77.5 12t-75.5 -10.5t-58.5 -33.5t-43 -61.5t-30 -93.5l-27 -122h229l-28 -144h-230l-192 -905h-168zM700 0l192 905h-149 l29 144h149l23 102q21 97 50.5 166.5t74.5 114.5t109.5 66.5t156.5 21.5q52 0 100 -13t88 -34l-61 -144q-26 17 -61.5 29t-77.5 12t-75.5 -10.5t-58.5 -33.5t-43 -61.5t-30 -93.5l-27 -122h229l-28 -144h-230l-192 -905h-168zM1294 0l221 1049h170l-221 -1049h-170z M1536 1278q0 71 32 105t101 34q50 0 71 -19t21 -48q0 -62 -29.5 -100t-99.5 -38q-29 0 -48 5t-29.5 13.5t-14.5 20.5t-4 27z" />
<glyph unicode="&#xfb04;" horiz-adv-x="1757" d="M82 0l192 905h-149l29 144h149l23 102q21 97 50.5 166.5t74.5 114.5t109.5 66.5t156.5 21.5q52 0 100 -13t88 -34l-61 -144q-26 17 -61.5 29t-77.5 12t-75.5 -10.5t-58.5 -33.5t-43 -61.5t-30 -93.5l-27 -122h229l-28 -144h-230l-192 -905h-168zM700 0l192 905h-149 l29 144h149l23 102q21 97 50.5 166.5t74.5 114.5t109.5 66.5t156.5 21.5q52 0 100 -13t88 -34l-61 -144q-26 17 -61.5 29t-77.5 12t-75.5 -10.5t-58.5 -33.5t-43 -61.5t-30 -93.5l-27 -122h229l-28 -144h-230l-192 -905h-168zM1302 0l316 1489h170l-316 -1489h-170z" />
<glyph horiz-adv-x="0" />
<glyph unicode="&#xd;" horiz-adv-x="543" />
<glyph horiz-adv-x="0" />
<glyph horiz-adv-x="0" />
<glyph unicode=" "  horiz-adv-x="543" />
<glyph unicode="&#x09;" horiz-adv-x="543" />
<glyph unicode="&#xa0;" horiz-adv-x="543" />
<glyph unicode="!" horiz-adv-x="545" d="M55 57q0 20 5.5 40.5t13.5 41.5q15 38 45.5 55t83.5 17q54 0 78 -18t24 -56q0 -25 -7 -50.5t-15 -39.5q-19 -34 -50 -47.5t-77 -13.5q-56 0 -78.5 18.5t-22.5 52.5zM176 399l180 985h195l-232 -985h-143z" />
<glyph unicode="&#x22;" horiz-adv-x="905" d="M274 834l76 550h205l-156 -550h-125zM633 834l78 550h204l-157 -550h-125z" />
<glyph unicode="#" horiz-adv-x="1346" d="M119 393l31 123h251l91 352h-265l31 125h264l96 391h121l-98 -391h289l98 391h121l-98 -391h252l-31 -125h-252l-86 -352h258l-29 -123h-262l-98 -393h-119l94 393h-286l-97 -393h-121l97 393h-252zM522 516h289l90 352h-289z" />
<glyph unicode="$" horiz-adv-x="1239" d="M131 309l150 84q7 -28 22.5 -55t40.5 -49.5t60 -39t83 -22.5l91 422q-78 27 -132 58.5t-87.5 69t-48.5 81t-15 94.5q0 64 21 125.5t70.5 110t130.5 80t200 37.5l20 106h127l-22 -111q112 -17 192 -78.5t115 -148.5l-141 -86q-31 68 -81 111t-116 55l-84 -379 q76 -27 132 -58.5t92.5 -70.5t54.5 -86t18 -104q0 -164 -114 -263t-330 -116l-41 -207h-125l45 209q-69 6 -123 25.5t-94 49.5t-67.5 69.5t-43.5 86.5zM465 975q0 -31 5.5 -54t21 -42t44.5 -35.5t76 -34.5l74 348q-63 -5 -105.5 -21.5t-68 -41t-36.5 -55.5t-11 -64zM612 225 q65 5 111 21t75 42t42.5 61.5t13.5 80.5q0 33 -7.5 59.5t-26 48.5t-49.5 40t-77 34z" />
<glyph unicode="%" horiz-adv-x="2048" d="M178 797q0 36 4.5 77.5t13 85.5t21.5 89t31 88q54 130 148 198t241 68q151 0 226 -75t75 -208q0 -47 -8.5 -104t-24 -115t-37 -112t-47.5 -95q-60 -93 -146.5 -133.5t-199.5 -40.5q-78 0 -134.5 21t-92.5 57.5t-53 87.5t-17 111zM352 799q0 -71 31.5 -108.5t108.5 -37.5 q78 0 124.5 37t77.5 105q14 31 26.5 69.5t22.5 81t15.5 87t5.5 87.5q0 35 -7 63t-23.5 47.5t-43.5 29.5t-67 10q-78 0 -127.5 -43.5t-81.5 -124.5q-14 -34 -25.5 -72.5t-19.5 -78.5t-12.5 -79t-4.5 -73zM426 -55l1079 1489h162l-1079 -1489h-162zM1165 246q0 36 4.5 77.5 t13 85.5t21.5 89t31 88q54 130 148.5 198t240.5 68q151 0 226 -74.5t75 -208.5q0 -47 -8.5 -104t-24 -115t-37 -112t-47.5 -95q-60 -93 -146.5 -133.5t-199.5 -40.5q-78 0 -134.5 21t-92.5 57.5t-53 87.5t-17 111zM1339 248q0 -71 31.5 -108.5t108.5 -37.5q78 0 124.5 37 t77.5 105q14 31 26.5 69.5t22.5 81t15.5 87t5.5 87.5q0 71 -31 110.5t-110 39.5q-78 0 -127.5 -43.5t-81.5 -124.5q-14 -34 -25.5 -72.5t-19.5 -78.5t-12.5 -79t-4.5 -73z" />
<glyph unicode="&#x26;" horiz-adv-x="1298" d="M86 303q0 84 28 150.5t79 122.5t123.5 105.5t162.5 100.5q-26 48 -43 85.5t-27 72.5t-14 70t-4 77q0 59 24 117t70.5 104t115 74.5t157.5 28.5q148 0 227.5 -62.5t79.5 -193.5q0 -53 -17.5 -101t-59.5 -97.5t-111 -103t-172 -116.5l202 -364q50 60 92 130.5t84 151.5 l146 -67q-48 -103 -108.5 -198t-129.5 -169l127 -221h-196l-62 104q-87 -65 -185 -99t-216 -34q-188 0 -280.5 87t-92.5 245zM264 319q0 -86 51 -138t148 -52q178 0 317 115l-227 407q-89 -54 -145.5 -96t-88.5 -80t-43.5 -75t-11.5 -81zM559 1083q0 -75 43 -157l29 -56 q77 45 128 82t81 69t42.5 62.5t12.5 63.5q0 62 -34.5 92.5t-112.5 30.5q-48 0 -83.5 -16t-59 -42.5t-35 -60t-11.5 -68.5z" />
<glyph unicode="'" horiz-adv-x="547" d="M274 834l76 550h205l-156 -550h-125z" />
<glyph unicode="(" horiz-adv-x="780" d="M121 293q0 165 42.5 332.5t121 326t189.5 303.5t247 265h190q-146 -122 -262 -270t-197 -307.5t-124 -325t-43 -322.5q0 -202 54.5 -376.5t158.5 -313.5h-183q-48 76 -84.5 152.5t-61 159.5t-36.5 175.5t-12 200.5z" />
<glyph unicode=")" horiz-adv-x="780" d="M-115 -395q146 122 262 269.5t197 307t124.5 325t43.5 322.5q0 203 -55 377t-158 314h182q48 -76 84.5 -153t61 -160t37 -175.5t12.5 -200.5q0 -165 -43 -332.5t-121.5 -326t-189 -303t-246.5 -264.5h-191z" />
<glyph unicode="*" horiz-adv-x="930" d="M199 1018l295 145l-242 154l74 92l229 -158l55 269h111l-62 -269l267 144l53 -99l-301 -145l248 -156l-72 -90l-231 158l-56 -268h-110l61 274l-270 -156z" />
<glyph unicode="+" horiz-adv-x="1427" d="M184 514v143h478v480h143v-480h479v-143h-479v-477h-143v477h-478z" />
<glyph unicode="," horiz-adv-x="545" d="M4 -293q29 29 53 68t42 79t29.5 75t16.5 57q-46 0 -67 17t-21 54q0 38 17 78q15 37 42.5 56.5t78.5 19.5q58 0 83 -21.5t25 -64.5q0 -21 -6 -49t-15.5 -58.5t-21.5 -61t-24 -56.5q-31 -65 -65 -115t-65 -78h-102z" />
<glyph unicode="-" horiz-adv-x="811" d="M82 440l37 172h610l-37 -172h-610z" />
<glyph unicode="." horiz-adv-x="545" d="M55 57q0 20 5.5 43t15.5 43q15 35 45.5 51.5t81.5 16.5q54 0 78 -17.5t24 -54.5q0 -23 -5 -46.5t-17 -45.5q-19 -34 -50 -47.5t-77 -13.5q-56 0 -78.5 18.5t-22.5 52.5z" />
<glyph unicode="/" horiz-adv-x="971" d="M-164 -299l1077 1819h170l-1081 -1819h-166z" />
<glyph unicode="0" horiz-adv-x="1239" d="M119 406q0 59 8.5 128t23 141.5t34.5 145t44 137.5q42 114 95 198.5t122 140t158 83t203 27.5q91 0 162 -26.5t120 -80t75 -134.5t26 -191q0 -65 -10 -143t-27 -159t-41.5 -160.5t-52.5 -147.5q-46 -113 -103 -189t-126.5 -122t-151.5 -65.5t-178 -19.5 q-197 0 -289 111.5t-92 325.5zM313 408q0 -147 48 -213t147 -66q68 0 123 17.5t101 55t84 96.5t73 142q20 48 39 113.5t34 137t24 144t9 134.5q0 75 -13 128t-40.5 86t-70 48.5t-101.5 15.5q-65 0 -118 -20t-96.5 -60.5t-78.5 -102t-65 -144.5q-20 -53 -37.5 -119 t-31.5 -134.5t-22 -135.5t-8 -123z" />
<glyph unicode="1" horiz-adv-x="1239" d="M373 989l28 129q99 6 166 21t115 45.5t83 79t69 120.5h129l-293 -1384h-176l208 989h-329z" />
<glyph unicode="2" horiz-adv-x="1163" d="M27 0l41 195q57 42 119.5 88t125.5 94t125 97t119 96t106.5 91.5t88.5 83.5q39 42 70.5 80.5t54 78t35 81t12.5 88.5q0 82 -47.5 129t-157.5 47q-91 0 -168 -41.5t-150 -128.5l-127 111q44 52 92.5 93.5t105.5 70t125 44t151 15.5q181 0 276.5 -84t95.5 -256 q0 -56 -17 -112.5t-48.5 -111.5t-75.5 -108.5t-98 -103.5q-36 -34 -71 -64t-73 -61.5t-82 -65.5t-99.5 -74.5t-124 -90.5t-155.5 -113h695l-35 -168h-909z" />
<glyph unicode="3" horiz-adv-x="1163" d="M27 174l161 98q12 -28 34.5 -53.5t54 -44.5t71.5 -30t86 -11q102 0 171.5 29.5t112 76t61 103t18.5 109.5q0 55 -18 94t-52 63.5t-83.5 35.5t-113.5 11h-100l33 160h84q82 0 148.5 21t113.5 57t72.5 84t25.5 102q0 92 -55.5 132t-149.5 40q-99 0 -174.5 -39t-140.5 -114 l-131 98q35 45 80 85t102 69t126 46t153 17q97 0 169 -23t119 -65t70 -100.5t23 -128.5q0 -62 -20 -117t-62 -101t-107 -81.5t-155 -57.5q49 -7 93 -30t77 -61t52 -90t19 -116q0 -84 -35.5 -168.5t-107 -151.5t-179.5 -109t-253 -42q-150 0 -249 53.5t-144 149.5z" />
<glyph unicode="4" horiz-adv-x="1239" d="M16 307l39 178l897 899h168l-194 -917h186l-35 -160h-186l-64 -307h-176l64 307h-699zM242 467h508l137 643z" />
<glyph unicode="5" horiz-adv-x="1163" d="M37 174l153 98q11 -27 34 -52.5t56 -44.5t75 -30.5t91 -11.5q42 0 82.5 8t77.5 22t68.5 34.5t54.5 46.5q22 24 40 55.5t30.5 66t19 69.5t6.5 67q0 104 -53.5 157.5t-179.5 53.5q-85 0 -156 -19t-133 -53h-88l231 743h711l-35 -167h-561l-127 -396q48 22 111 34.5 t129 12.5q74 0 137.5 -17.5t110 -58t72.5 -106t26 -160.5q0 -114 -44 -219.5t-124 -185.5q-77 -78 -187 -114t-247 -36q-78 0 -142 16t-112 44t-80 64.5t-47 78.5z" />
<glyph unicode="6" horiz-adv-x="1163" d="M123 389q0 121 26 245t68 245q42 125 98.5 224t130.5 168t167.5 105.5t207.5 36.5q69 0 122 -9.5t94.5 -27t74 -43.5t59.5 -59l-129 -131q-46 57 -97.5 83.5t-127.5 26.5q-86 0 -154 -37t-121.5 -101t-93 -150.5t-67.5 -184.5q74 56 158 81.5t161 25.5q187 0 275 -85.5 t88 -248.5q0 -65 -13.5 -134t-41.5 -133.5t-72 -122t-105.5 -100t-141 -67.5t-179.5 -25q-200 0 -293.5 104t-93.5 314zM315 385q0 -74 13.5 -123t40 -78t66 -41t91.5 -12q88 0 153 35.5t108 92.5t64 129.5t21 146.5q0 49 -14.5 85t-41 59t-63 34.5t-81.5 11.5 q-47 0 -92.5 -7.5t-87 -20t-78.5 -28.5t-66 -32q-15 -74 -24 -137.5t-9 -114.5z" />
<glyph unicode="7" horiz-adv-x="1239" d="M254 0l780 1217h-749l34 167h947l-37 -172l-754 -1212h-221z" />
<glyph unicode="8" horiz-adv-x="1163" d="M61 291q0 73 28 140t79.5 124t123.5 103.5t161 80.5q-101 54 -153 119.5t-52 163.5q0 84 32.5 156t96.5 124t158.5 81.5t218.5 29.5q199 0 298 -76.5t99 -228.5q0 -62 -25.5 -115.5t-71.5 -100.5t-110.5 -86.5t-142.5 -72.5q57 -29 100 -61.5t72 -70.5t44 -83.5 t15 -101.5q0 -95 -39.5 -176t-112 -141t-174.5 -94t-227 -34q-209 0 -313.5 77t-104.5 243zM246 299q0 -82 60.5 -130t191.5 -48q60 0 122.5 17.5t113 52.5t82.5 89t32 126q0 46 -19 82t-51.5 66t-75 55.5t-90.5 49.5q-82 -30 -149.5 -65t-115.5 -78.5t-74.5 -96.5 t-26.5 -120zM432 1047q0 -35 10 -64t34.5 -56.5t65.5 -55.5t103 -60q48 18 104 42.5t104.5 57.5t81 76t32.5 100q0 96 -58 137.5t-182 41.5q-72 0 -127 -18.5t-92.5 -49t-56.5 -70t-19 -81.5z" />
<glyph unicode="9" horiz-adv-x="1163" d="M72 111l129 131q46 -57 98 -84t127 -27q86 0 154 37t121.5 101t92.5 150.5t68 184.5q-74 -56 -158 -81t-161 -25q-188 0 -275.5 85t-87.5 248q0 66 13.5 134.5t41.5 133t72 122t105.5 100t141 67.5t179.5 25q199 0 293 -103.5t94 -314.5q0 -120 -27 -244t-67 -245 q-42 -125 -99 -224.5t-131 -168.5t-167 -105.5t-207 -36.5q-68 0 -121 9.5t-95 27.5t-74.5 44t-59.5 59zM371 850q0 -49 14.5 -85t41 -59.5t63.5 -35t81 -11.5q47 0 92.5 8t87 20.5t78.5 28.5t66 32q15 74 24 137t9 114q0 74 -13.5 123t-40 78t-66 41t-91.5 12 q-88 0 -153 -35.5t-108 -92.5t-64 -129t-21 -146z" />
<glyph unicode=":" horiz-adv-x="545" d="M55 57q0 20 5.5 43t15.5 43q15 35 45.5 51.5t81.5 16.5q54 0 78 -17.5t24 -54.5q0 -23 -5 -46.5t-17 -45.5q-19 -34 -50 -47.5t-77 -13.5q-56 0 -78.5 18.5t-22.5 52.5zM233 895q0 20 6 43t15 43q15 35 45.5 51.5t81.5 16.5q54 0 78 -17.5t24 -54.5q0 -23 -5 -47t-17 -45 q-19 -34 -50 -48t-77 -14q-56 0 -78.5 19t-22.5 53z" />
<glyph unicode=";" horiz-adv-x="545" d="M4 -293q29 29 53 68t42 79t29.5 75t16.5 57q-46 0 -67 17t-21 54q0 38 17 78q15 37 42.5 56.5t78.5 19.5q58 0 83 -21.5t25 -64.5q0 -21 -6 -49t-15.5 -58.5t-21.5 -61t-24 -56.5q-31 -65 -65 -115t-65 -78h-102zM233 895q0 20 6 43t15 43q15 35 45.5 51.5t81.5 16.5 q54 0 78 -17.5t24 -54.5q0 -23 -5 -47t-17 -45q-19 -34 -50 -48t-77 -14q-56 0 -78.5 19t-22.5 53z" />
<glyph unicode="&#x3c;" horiz-adv-x="1427" d="M184 524v125l1100 463v-156l-901 -370l901 -369v-156z" />
<glyph unicode="=" horiz-adv-x="1427" d="M193 283v143h1099v-143h-1099zM193 745v144h1099v-144h-1099z" />
<glyph unicode="&#x3e;" horiz-adv-x="1427" d="M195 61v156l899 369l-899 370v156l1099 -463v-125z" />
<glyph unicode="?" horiz-adv-x="1028" d="M211 1212q33 45 76 82t96.5 63.5t118 41t141.5 14.5q93 0 167 -19t125.5 -57.5t79 -95.5t27.5 -133q0 -89 -34.5 -162.5t-100.5 -138t-161 -123.5t-216 -117l-43 -198h-170l62 284q111 55 198 102.5t147 98t91 109t31 133.5t-54 114t-159 39q-52 0 -95.5 -11t-79.5 -29.5 t-64.5 -44.5t-51.5 -56zM221 57q0 20 5.5 40.5t13.5 41.5q15 38 45.5 55t83.5 17q54 0 78 -18t24 -56q0 -25 -7 -50.5t-15 -39.5q-19 -34 -50 -47.5t-77 -13.5q-56 0 -78.5 18.5t-22.5 52.5z" />
<glyph unicode="@" horiz-adv-x="1896" d="M94 358q0 127 29 254.5t86.5 245t141.5 218.5t194.5 176t245.5 118t294 43q171 0 305 -41t227 -124t142 -208.5t49 -294.5q0 -94 -17 -184.5t-49 -171.5t-78 -149.5t-103.5 -118t-125.5 -77.5t-145 -28q-105 0 -154.5 45t-52.5 125q-41 -32 -79.5 -58.5t-77 -45.5 t-78.5 -29t-82 -10q-78 0 -131.5 25t-86.5 70.5t-48 109t-15 139.5q0 27 5.5 67.5t16.5 88t28 97.5t40 95q35 67 77 120t95.5 90t121 57t153.5 20q36 0 68 -7.5t59.5 -19.5t50 -26.5t39.5 -28.5l10 53h168l-153 -723q-3 -15 -5 -27.5t-2 -23.5q0 -34 18 -47.5t58 -13.5 q39 0 78 21.5t75 60t67.5 93t54.5 120t36 141t13 156.5q0 126 -33 223t-103.5 163.5t-181 101t-264.5 34.5q-131 0 -243.5 -35.5t-204.5 -98.5t-163 -149.5t-119.5 -188.5t-73.5 -215t-25 -229q0 -123 38.5 -220.5t111 -165t176.5 -103t235 -35.5q121 0 225 10t205 35v-143 q-102 -23 -222 -33t-241 -10q-156 0 -282 42.5t-214.5 126.5t-136 209t-47.5 289zM659 395q0 -46 6.5 -82t21.5 -60.5t40.5 -37t63.5 -12.5q48 0 90.5 10.5t81 28.5t73.5 42.5t70 53.5l98 453q-49 42 -98 60.5t-105 18.5q-89 0 -154 -44t-116 -150q-18 -37 -31.5 -76 t-22.5 -76t-13.5 -70.5t-4.5 -58.5z" />
<glyph unicode="A" horiz-adv-x="1262" d="M-47 0l747 1384h236l176 -1384h-188l-43 360h-539l-197 -360h-192zM426 528h434l-78 674z" />
<glyph unicode="B" horiz-adv-x="1247" d="M68 0l292 1384h396q124 0 205.5 -19.5t129.5 -55.5t67.5 -87.5t19.5 -115.5q0 -127 -73 -216t-216 -134q51 -9 95.5 -31t77.5 -58t52 -86.5t19 -115.5q0 -92 -31.5 -176.5t-100.5 -148.5t-179 -102t-267 -38h-487zM283 168h256q95 0 168.5 16.5t123.5 52t75.5 92 t25.5 136.5q0 57 -21 92.5t-61.5 55t-99.5 26t-134 6.5h-231zM420 809h201q173 0 264.5 65.5t91.5 196.5q0 46 -16.5 75.5t-46.5 46t-73.5 22.5t-97.5 6h-237z" />
<glyph unicode="C" horiz-adv-x="1280" d="M117 463q0 63 8 132.5t24 141t39.5 143t55.5 138.5q39 83 96 155t132 125.5t169 84t207 30.5q96 0 170 -18t130 -52.5t95.5 -84t67.5 -111.5l-162 -94q-21 49 -50 86t-68.5 61.5t-90.5 36.5t-117 12q-71 0 -132 -22.5t-112 -62.5t-91.5 -94t-69.5 -118q-26 -55 -46 -116 t-34 -124t-21.5 -126.5t-7.5 -124.5q0 -156 73 -241t206 -85q74 0 135 15t112 43t95 68t84 89l127 -114q-45 -56 -97 -104.5t-117.5 -84t-148 -56t-188.5 -20.5q-121 0 -210 33t-147.5 96t-87 154.5t-28.5 208.5z" />
<glyph unicode="D" horiz-adv-x="1266" d="M55 0l293 1384h342q131 0 230 -22.5t165.5 -76t100 -141.5t33.5 -218q0 -49 -6 -111t-19 -130t-33 -139t-48.5 -138.5t-66.5 -127.5t-85 -106q-50 -48 -111 -81.5t-130 -54t-144.5 -29.5t-155.5 -9h-365zM272 168h150q136 0 234.5 29t166.5 98q45 45 82.5 119.5 t63.5 161.5t40.5 178t14.5 170q0 82 -17.5 138t-61 90.5t-116.5 49.5t-184 15h-149z" />
<glyph unicode="E" horiz-adv-x="1130" d="M68 0l292 1384h830l-35 -167h-649l-86 -404h555l-35 -168h-555l-102 -477h649l-35 -168h-829z" />
<glyph unicode="F" horiz-adv-x="1085" d="M68 0l292 1384h822l-35 -167h-641l-86 -404h545l-35 -168h-545l-137 -645h-180z" />
<glyph unicode="G" horiz-adv-x="1362" d="M129 465q0 105 23.5 226.5t72.5 240.5q40 96 98.5 183t137 153.5t178 105.5t221.5 39q178 0 291.5 -66.5t173.5 -209.5l-172 -86q-21 54 -50 92t-66.5 61.5t-83.5 34t-103 10.5q-86 0 -155 -31t-123.5 -82.5t-95 -118.5t-68.5 -140q-23 -59 -39 -118t-26 -114t-14.5 -103 t-4.5 -83q0 -81 17.5 -142t55.5 -101.5t99.5 -60.5t148.5 -20q39 0 76 6t74 16.5t75.5 25t81.5 32.5l68 320h-330l35 167h510l-125 -596q-62 -31 -120.5 -56t-117.5 -42.5t-119.5 -27t-125.5 -9.5q-124 0 -217 28.5t-155.5 88.5t-94 153.5t-31.5 223.5z" />
<glyph unicode="H" horiz-adv-x="1337" d="M68 0l292 1384h181l-123 -583h618l123 583h180l-292 -1384h-181l133 633h-618l-133 -633h-180z" />
<glyph unicode="I" horiz-adv-x="754" d="M-10 0l33 160h186l227 1067h-186l33 157h553l-33 -157h-187l-227 -1067h186l-32 -160h-553z" />
<glyph unicode="J" horiz-adv-x="866" d="M-33 20l72 156q34 -20 82.5 -31.5t97.5 -11.5q63 0 106.5 17.5t74 56t52 99.5t40.5 147l196 931h180l-213 -1007q-24 -112 -60 -190t-89.5 -126.5t-127 -70t-171.5 -21.5q-72 0 -133.5 15t-106.5 36z" />
<glyph unicode="K" horiz-adv-x="1239" d="M68 0l292 1384h181l-138 -653l695 653h235l-680 -641l422 -743h-219l-338 625l-172 -158l-98 -467h-180z" />
<glyph unicode="L" horiz-adv-x="1018" d="M68 0l292 1384h181l-258 -1216h614l-35 -168h-794z" />
<glyph unicode="M" horiz-adv-x="1561" d="M68 0l292 1384h238l199 -753l524 753h244l-293 -1384h-172l243 1147l-538 -770h-113l-207 770l-243 -1147h-174z" />
<glyph unicode="N" horiz-adv-x="1358" d="M68 0l292 1384h250l346 -1087l232 1087h174l-293 -1384h-199l-376 1188l-252 -1188h-174z" />
<glyph unicode="O" horiz-adv-x="1337" d="M117 469q0 53 6 112.5t18 122.5t31 127.5t45 126.5q40 94 93.5 177t127 145t171.5 97.5t227 35.5q222 0 338 -124t116 -365q0 -79 -14 -185t-49 -219q-36 -116 -90 -216t-131.5 -174t-182 -116.5t-241.5 -42.5q-132 0 -221 35.5t-143 100.5t-77.5 157t-23.5 205zM311 465 q0 -92 15.5 -155t49.5 -102t87.5 -56t128.5 -17q163 0 270.5 105.5t175.5 322.5q15 49 26 99.5t18 98.5t10.5 91t3.5 78q0 161 -65 240t-214 79q-81 0 -144 -24t-113 -68.5t-89 -108.5t-72 -145q-23 -57 -39.5 -117t-27.5 -117t-16 -109.5t-5 -94.5z" />
<glyph unicode="P" horiz-adv-x="1157" d="M68 0l292 1384h408q94 0 168.5 -16t125.5 -52.5t78 -97t27 -149.5q0 -123 -30 -232t-97.5 -191t-175.5 -129.5t-264 -47.5h-254l-98 -469h-180zM383 637h235q69 0 122 17t92.5 46t66 68.5t42.5 85.5t23 95t7 98q0 43 -10.5 75t-37 53t-70.5 31.5t-110 10.5h-237z" />
<glyph unicode="Q" horiz-adv-x="1337" d="M117 469q0 53 6 112.5t18 122.5t31 127.5t45 126.5q40 94 93.5 177t127 145t171.5 97.5t227 35.5q222 0 338 -124t116 -365q0 -79 -14 -185t-49 -219q-33 -107 -81 -200t-115.5 -164.5t-157 -117.5t-205.5 -58q4 -39 15.5 -66.5t34 -45t58 -26t88.5 -8.5q15 0 35.5 2 t42.5 5t44 7.5t40 10.5l25 -152q-28 -9 -58 -15.5t-60 -11t-58 -6.5t-52 -2q-91 0 -156.5 18.5t-108.5 57t-66 96.5t-29 136q-97 14 -163 55t-106.5 104.5t-58.5 147t-18 182.5zM311 465q0 -92 15.5 -155t49.5 -102t87.5 -56t128.5 -17q163 0 270.5 111t175.5 327 q31 99 44.5 193.5t13.5 163.5q0 161 -65 240t-214 79q-81 0 -144 -24t-113.5 -68.5t-90 -108.5t-72.5 -145q-23 -57 -39 -117t-26.5 -117t-15.5 -109.5t-5 -94.5z" />
<glyph unicode="R" horiz-adv-x="1212" d="M68 0l292 1384h410q100 0 178 -14.5t130.5 -51t80 -97.5t27.5 -154q0 -35 -8.5 -82t-26.5 -98t-46 -100.5t-67 -88.5q-24 -23 -52.5 -41t-60 -31.5t-64.5 -23t-66 -16.5l247 -586h-204l-228 565h-243l-119 -565h-180zM401 729h228q97 0 162.5 17t107.5 59q24 23 41.5 54 t28.5 65.5t16.5 71t5.5 71.5q0 44 -15 73.5t-45.5 47.5t-77 25.5t-108.5 7.5h-239z" />
<glyph unicode="S" horiz-adv-x="1202" d="M31 254l172 80q13 -39 36 -75t61 -63.5t94.5 -44t137.5 -16.5q71 0 133.5 17.5t109.5 49t74.5 76.5t27.5 101q0 43 -9 77.5t-36 63t-76.5 53.5t-130.5 50q-122 37 -201 72.5t-125 77.5t-64 93.5t-18 120.5q0 77 30.5 153t95 137t164 98.5t238.5 37.5q89 0 159 -16.5 t124.5 -49t94.5 -80.5t69 -112l-160 -90q-32 85 -109 134.5t-198 49.5q-84 0 -143.5 -21t-97 -54.5t-55 -77t-17.5 -88.5q0 -35 7.5 -61.5t35.5 -50t82 -47t147 -52.5q113 -36 187.5 -73.5t119 -83t62.5 -102.5t18 -130q0 -114 -46.5 -196.5t-123.5 -136t-176.5 -79 t-204.5 -25.5q-120 0 -204 23t-141 61.5t-90.5 90t-53.5 108.5z" />
<glyph unicode="T" horiz-adv-x="1159" d="M188 1217l35 167h1080l-35 -167h-451l-258 -1217h-180l258 1217h-449z" />
<glyph unicode="U" horiz-adv-x="1376" d="M160 334q0 111 35 266l165 784h181l-166 -786q-8 -35 -14 -66.5t-10.5 -63t-6.5 -64.5t-2 -70q0 -99 60 -150t190 -51q98 0 168 22t121 77t87 146.5t66 231.5l166 774h180l-170 -806q-38 -182 -90.5 -299.5t-126.5 -186.5t-174 -96t-233 -27q-115 0 -196 24t-132 70 t-74.5 114t-23.5 157z" />
<glyph unicode="V" horiz-adv-x="1200" d="M233 1384h181l106 -1206l619 1206h194l-725 -1384h-243z" />
<glyph unicode="W" horiz-adv-x="1722" d="M248 1384h176l14 -1122l494 1122h205l22 -1122l496 1122h184l-620 -1384h-218l-22 1108l-492 -1108h-211z" />
<glyph unicode="X" horiz-adv-x="1184" d="M-57 0l592 715l-289 669h200l218 -534l436 534h215l-586 -690l293 -694h-201l-223 559l-442 -559h-213z" />
<glyph unicode="Y" horiz-adv-x="1124" d="M223 1384h189l180 -673l463 673h211l-611 -849l-112 -535h-185l111 526z" />
<glyph unicode="Z" horiz-adv-x="1141" d="M-20 0l36 176l926 1041h-674l35 167h899l-35 -165l-936 -1051h730l-35 -168h-946z" />
<glyph unicode="[" horiz-adv-x="788" d="M-4 -395l399 1884h477l-28 -133h-322l-344 -1618h322l-27 -133h-477z" />
<glyph unicode="\" horiz-adv-x="971" d="M309 1520h158l321 -1819h-155z" />
<glyph unicode="]" horiz-adv-x="788" d="M-72 -395l27 133h321l345 1618h-324l29 133h477l-400 -1884h-475z" />
<glyph unicode="^" horiz-adv-x="1133" d="M166 649l524 735h135l211 -735h-129l-174 592l-422 -592h-145z" />
<glyph unicode="_" horiz-adv-x="1024" d="M-195 -256l23 102h1063l-23 -102h-1063z" />
<glyph unicode="`" horiz-adv-x="1063" d="M483 1569h217l113 -361h-121z" />
<glyph unicode="a" d="M92 342q0 70 13.5 151.5t41 163.5t71 158t103 135t136.5 94t172 35q96 0 162.5 -30.5t115.5 -85.5l19 86h170l-222 -1049h-169l26 125q-37 -32 -75 -60t-78.5 -49.5t-85 -34t-93.5 -12.5q-83 0 -141.5 24.5t-95 72t-53.5 117t-17 159.5zM266 338q0 -116 40.5 -165.5 t127.5 -49.5q45 0 89 12.5t86 34t81 49.5t74 60l113 534q-50 54 -108 83.5t-144 29.5q-62 0 -112.5 -27t-90.5 -73t-69.5 -106t-48.5 -125t-28.5 -131.5t-9.5 -125.5z" />
<glyph unicode="b" d="M55 0l316 1489h170l-115 -545q34 28 71 53t77.5 43t84.5 28.5t93 10.5q83 0 142 -24.5t96.5 -72t55 -116.5t17.5 -159q0 -59 -11 -129.5t-33 -143.5t-55.5 -144.5t-78.5 -131.5q-69 -91 -164 -140t-217 -49q-82 0 -146.5 30.5t-113.5 86.5l-19 -86h-170zM274 236 q50 -54 106.5 -83.5t133.5 -29.5q69 0 130.5 35.5t111.5 109.5q31 45 54.5 98.5t39.5 110.5t24.5 116.5t8.5 117.5q0 115 -40 165t-126 50q-45 0 -89.5 -11.5t-85.5 -30t-79 -43t-70 -50.5z" />
<glyph unicode="c" horiz-adv-x="1010" d="M90 356q0 68 13.5 148t42.5 160t74.5 155t109.5 133t147.5 92.5t188.5 34.5q125 0 212 -47.5t126 -144.5l-152 -82q-25 62 -73 93.5t-130 31.5q-65 0 -119 -26.5t-96.5 -71t-74 -103t-52.5 -123t-31 -131.5t-10 -127q0 -51 11 -93.5t36.5 -72.5t66.5 -46.5t101 -16.5 q41 0 76 9.5t67 27t61.5 43.5t59.5 59l117 -96q-33 -42 -73 -77t-89 -61t-107 -40.5t-128 -14.5q-100 0 -171 27t-116.5 77.5t-66.5 122t-21 160.5z" />
<glyph unicode="d" d="M88 342q0 59 11 129.5t33 143.5t55.5 144t78.5 132q69 91 164 139.5t217 48.5q82 0 146.5 -30.5t113.5 -85.5l111 526h170l-314 -1489h-169l20 104q-35 -28 -71.5 -52.5t-77 -43t-84.5 -29t-93 -10.5q-83 0 -142 24.5t-96.5 72t-55 117t-17.5 159.5zM268 338 q0 -116 39.5 -165.5t126.5 -49.5q45 0 89.5 11t85.5 30t79 43.5t70 50.5l119 555q-50 54 -106.5 83.5t-133.5 29.5q-69 0 -130.5 -35.5t-111.5 -110.5q-31 -45 -54.5 -98.5t-39.5 -110.5t-24.5 -116t-8.5 -117z" />
<glyph unicode="e" horiz-adv-x="1059" d="M88 340q0 61 10 129t30 136.5t49 133.5t67 121q67 101 168 160t250 59q82 0 144 -23.5t103.5 -66t62.5 -103t21 -134.5q0 -10 -1.5 -29t-3.5 -41t-5 -44t-6 -38l-21 -96h-671q-10 -47 -15.5 -88t-5.5 -78q0 -63 13.5 -105t42 -67.5t72 -36t104.5 -10.5q68 0 134 35 t128 100l106 -98q-78 -89 -171.5 -138t-217.5 -49q-189 0 -288 91t-99 280zM315 639h502q12 58 12 109q0 91 -45 139.5t-145 48.5q-71 0 -125.5 -24t-97.5 -76q-57 -71 -101 -197z" />
<glyph unicode="f" horiz-adv-x="621" d="M82 0l192 905h-149l29 144h149l23 102q21 97 50.5 166.5t74.5 114.5t109.5 66.5t156.5 21.5q52 0 100 -13t88 -34l-61 -144q-26 17 -61.5 29t-77.5 12t-75.5 -10.5t-58.5 -33.5t-43 -61.5t-30 -93.5l-27 -122h229l-28 -144h-230l-192 -905h-168z" />
<glyph unicode="g" d="M-6 -297l86 131q56 -40 123 -63t159 -23q79 0 136.5 12.5t98.5 44.5t68.5 86.5t45.5 139.5l22 104q-35 -29 -75 -53.5t-82.5 -42.5t-85.5 -28.5t-84 -10.5q-87 0 -147.5 27.5t-98 77t-54 118t-16.5 150.5q0 77 16 159t48 160.5t79 148.5t109 123t138 84t167 31 q31 0 66 -8t69.5 -23t67 -36.5t57.5 -48.5l19 86h168l-224 -1057q-23 -108 -63 -181.5t-101.5 -119.5t-148 -66t-201.5 -20q-128 0 -217 27.5t-145 70.5zM270 369q0 -113 39 -164t131 -51q46 0 89.5 10.5t84.5 29t79 43t73 52.5l111 524q-50 54 -109 83.5t-131 29.5 q-62 0 -113.5 -26.5t-92 -70.5t-71 -101.5t-50.5 -119.5t-30 -124t-10 -115z" />
<glyph unicode="h" horiz-adv-x="1141" d="M55 0l316 1489h170l-127 -596q44 40 90.5 74.5t94 59t96.5 38.5t98 14q67 0 112.5 -18t73.5 -50t40.5 -76t12.5 -95q0 -37 -8.5 -93t-24.5 -129l-129 -618h-168l132 618q12 57 19 105t7 94q0 48 -22.5 76.5t-83.5 28.5q-36 0 -80 -12.5t-92 -35.5t-98.5 -57t-100.5 -76 l-158 -741h-170z" />
<glyph unicode="i" horiz-adv-x="502" d="M55 0l221 1049h170l-221 -1049h-170zM297 1278q0 71 32 105t101 34q50 0 71 -19t21 -48q0 -62 -29.5 -100t-99.5 -38q-29 0 -48 5t-29.5 13.5t-14.5 20.5t-4 27z" />
<glyph unicode="j" horiz-adv-x="526" d="M-328 -365l72 142q32 -14 66.5 -21.5t76.5 -7.5q39 0 67.5 15t49.5 43.5t35.5 71t26.5 97.5l227 1074h170l-232 -1094q-18 -87 -47 -152.5t-73 -109.5t-107.5 -66t-150.5 -22q-36 0 -86 7.5t-95 22.5zM324 1282q0 68 34 101.5t99 33.5q49 0 70.5 -19.5t21.5 -51.5 q0 -65 -33 -99.5t-96 -34.5q-29 0 -48 5t-29.5 14t-14.5 22t-4 29z" />
<glyph unicode="k" horiz-adv-x="1028" d="M55 0l316 1489h170l-195 -914l504 474h219l-502 -463l303 -586h-192l-238 477l-141 -131l-74 -346h-170z" />
<glyph unicode="l" horiz-adv-x="518" d="M63 0l316 1489h170l-316 -1489h-170z" />
<glyph unicode="m" horiz-adv-x="1677" d="M55 0l221 1049h170l-32 -156q40 40 84.5 74.5t88.5 59t86.5 38.5t78.5 14q64 0 108.5 -15t71.5 -42t39 -65t12 -83q99 96 191.5 150.5t173.5 54.5q67 0 111 -17.5t70 -48t36 -71.5t10 -88q0 -76 -23 -176l-143 -678h-168l131 618q14 66 22.5 114t8.5 83q0 53 -22.5 80 t-71.5 27q-41 0 -84 -16.5t-86 -42.5t-85 -58.5t-79 -63.5l-158 -741h-170l131 618q14 67 22.5 116t8.5 83q0 54 -24 79.5t-76 25.5q-38 0 -80.5 -17.5t-85.5 -44t-84.5 -58.5t-75.5 -61l-158 -741h-170z" />
<glyph unicode="n" horiz-adv-x="1141" d="M55 0l221 1049h170l-32 -156q44 40 90.5 74.5t94 59t96.5 38.5t98 14q67 0 112.5 -18t73.5 -50t40.5 -76t12.5 -95q0 -37 -8.5 -93t-24.5 -129l-129 -618h-168l132 618q12 57 19 105t7 96q0 47 -25.5 75t-80.5 28q-79 0 -175 -48t-196 -133l-158 -741h-170z" />
<glyph unicode="o" horiz-adv-x="1135" d="M92 379q0 54 10.5 121t33.5 138.5t59.5 141.5t89.5 129q33 38 72.5 69t87 53.5t102.5 35t119 12.5q179 0 277.5 -101t98.5 -306q0 -62 -11.5 -135.5t-37 -148.5t-66 -146.5t-98.5 -128.5q-65 -65 -151.5 -104.5t-200.5 -39.5q-105 0 -178.5 26.5t-119 78t-66.5 128 t-21 177.5zM266 369q0 -65 12 -112.5t38.5 -78t68.5 -45t102 -14.5q72 0 129.5 29.5t102.5 80.5q35 40 63 93t47 112t29 120.5t10 117.5q0 133 -53.5 195.5t-165.5 62.5q-81 0 -144 -37.5t-108 -97.5q-31 -41 -55 -93t-41 -108t-26 -114t-9 -111z" />
<glyph unicode="p" d="M-29 -395l305 1444h170l-20 -105q34 28 71 53t77.5 43t84.5 28.5t93 10.5q83 0 142 -24.5t96.5 -72t55 -116.5t17.5 -159q0 -68 -13 -149.5t-41 -163.5t-71.5 -158.5t-104 -136t-139 -95t-176.5 -35.5q-93 0 -159 30.5t-115 86.5l-103 -481h-170zM274 236 q50 -54 106.5 -83.5t133.5 -29.5q61 0 112.5 27.5t92.5 73.5t71.5 106t51.5 125.5t31 131.5t10 124q0 115 -40 165t-126 50q-45 0 -89.5 -11.5t-85.5 -30t-79 -43t-70 -50.5z" />
<glyph unicode="q" d="M88 342q0 66 13 146.5t40.5 162t70.5 159t103 137t137.5 96t174.5 36.5t164 -30.5t116 -85.5l19 86h170l-305 -1444h-170l104 499q-35 -28 -71.5 -52.5t-77 -43t-84.5 -29t-93 -10.5q-83 0 -142 24.5t-96.5 72t-55 117t-17.5 159.5zM268 338q0 -116 39.5 -165.5 t126.5 -49.5q45 0 89.5 11t85.5 30t79 43.5t70 50.5l119 555q-50 54 -107.5 83.5t-140.5 29.5q-65 0 -117 -29t-92 -76.5t-69 -109t-47.5 -126.5t-27 -129.5t-8.5 -117.5z" />
<glyph unicode="r" horiz-adv-x="795" d="M55 0l221 1049h170l-34 -170q51 48 95.5 83t85 58t78.5 34t77 11q77 0 120 -23l-69 -165q-13 6 -34.5 10t-41.5 4q-52 0 -98.5 -14.5t-89 -38t-81 -53t-75.5 -60.5l-154 -725h-170z" />
<glyph unicode="s" horiz-adv-x="971" d="M20 158l148 80q26 -57 78 -90t147 -33q44 0 90.5 8.5t84.5 28.5t62.5 52.5t24.5 80.5q0 24 -6 45t-27 41.5t-62 41t-111 44.5q-83 27 -137 55.5t-86 61.5t-45 72.5t-13 90.5q0 71 27.5 133t80 108.5t128.5 73.5t174 27q75 0 131.5 -14t98 -38.5t70 -58t48.5 -73.5 l-144 -84q-8 18 -22.5 39.5t-40.5 40t-64.5 31t-93.5 12.5q-51 0 -92.5 -13t-71 -35.5t-45.5 -53.5t-16 -66q0 -23 7 -45t26 -42.5t52 -39t85 -33.5q92 -28 154 -56.5t99 -63.5t52.5 -79.5t15.5 -103.5q0 -69 -29 -130t-85 -106t-139.5 -71.5t-192.5 -26.5q-87 0 -150 16 t-106.5 42.5t-68.5 60.5t-36 70z" />
<glyph unicode="t" horiz-adv-x="715" d="M129 905l29 144h145l64 292h168l-64 -292h262l-28 -144h-263l-118 -555q-10 -42 -15.5 -76.5t-5.5 -60.5q0 -53 25 -76.5t82 -23.5q18 0 38 2t40.5 6t40 9t34.5 11v-141q-46 -14 -95 -22.5t-91 -8.5q-65 0 -110.5 16t-75 44.5t-43 68t-13.5 86.5q0 34 4.5 75t14.5 81 l120 565h-145z" />
<glyph unicode="u" horiz-adv-x="1141" d="M106 209q0 37 9 93t24 128l129 619h168l-129 -619q-12 -57 -20 -103.5t-8 -88.5q0 -60 25 -85.5t79 -25.5q80 0 176.5 47.5t196.5 132.5l157 742h170l-221 -1049h-170l33 156q-45 -41 -91 -75.5t-94 -59t-96.5 -38.5t-97.5 -14q-67 0 -112.5 18t-74 50.5t-41 76.5 t-12.5 95z" />
<glyph unicode="v" horiz-adv-x="987" d="M162 1049h172l96 -824l434 824h185l-584 -1049h-166z" />
<glyph unicode="w" horiz-adv-x="1446" d="M172 1049h166l6 -799l412 799h141l84 -799l334 799h178l-473 -1049h-160l-80 803l-422 -803h-151z" />
<glyph unicode="x" horiz-adv-x="991" d="M-55 0l452 537l-229 512h190l164 -385l318 385h209l-457 -527l235 -522h-190l-166 397l-317 -397h-209z" />
<glyph unicode="y" horiz-adv-x="1020" d="M-184 -365l63 138q22 -11 50.5 -18t60.5 -7q37 0 70.5 12t66 39t66.5 71.5t73 109.5l56 90l-164 979h172l119 -783l448 783h186l-677 -1129q-53 -87 -98.5 -147t-93.5 -97.5t-103.5 -54t-126.5 -16.5q-23 0 -46.5 2.5t-45.5 6.5t-41.5 9.5t-34.5 11.5z" />
<glyph unicode="z" horiz-adv-x="915" d="M-31 0l27 131l692 774h-514l29 144h727l-27 -125l-692 -779h545l-31 -145h-756z" />
<glyph unicode="{" horiz-adv-x="956" d="M92 489l33 148h18q78 0 137 22.5t102.5 67t73 111t48.5 155.5l31 146q38 185 150.5 283t293.5 98h88l-29 -134h-69q-113 0 -185 -65.5t-100 -198.5l-37 -172q-19 -92 -47 -158.5t-69.5 -112.5t-100 -74.5t-139.5 -43.5q97 -37 151 -104.5t54 -175.5q0 -51 -13 -107 l-37 -172q-5 -25 -9.5 -50t-4.5 -61q0 -80 49.5 -116.5t157.5 -36.5h49l-26 -133h-68q-75 0 -134 18t-100 53t-62.5 86.5t-21.5 118.5q0 25 3.5 51t9.5 54l30 147q8 35 14.5 71.5t6.5 86.5q0 41 -13.5 77t-41.5 63t-71 42.5t-103 15.5h-19z" />
<glyph unicode="|" horiz-adv-x="852" d="M381 -395v1915h156v-1915h-156z" />
<glyph unicode="}" horiz-adv-x="956" d="M-94 -395l28 133h70q113 0 185 65.5t100 198.5l37 172q19 92 47 158.5t69.5 112.5t100 74.5t139.5 43.5q-97 37 -151 105t-54 176q0 47 12 106l37 172q5 25 10 50.5t5 60.5q0 80 -49.5 116.5t-157.5 36.5h-49l26 134h68q150 0 233.5 -71.5t83.5 -205.5q0 -49 -12 -104 l-31 -148q-8 -35 -14 -71.5t-6 -85.5q0 -42 13.5 -78t41 -63t71 -42.5t103.5 -15.5h19l-33 -148h-19q-78 0 -137 -22t-102 -66.5t-72.5 -111.5t-48.5 -156l-31 -145q-38 -186 -151 -283.5t-293 -97.5h-88z" />
<glyph unicode="~" horiz-adv-x="1399" d="M178 614l35 160q78 62 154 94.5t147 32.5q69 0 132.5 -24.5t123 -54.5t115.5 -54.5t110 -24.5q72 0 154.5 38t167.5 106l-35 -160q-26 -21 -59.5 -43.5t-73 -41t-82.5 -30.5t-88 -12q-64 0 -128.5 24.5t-126 54.5t-117.5 54.5t-103 24.5q-43 0 -82 -8t-78 -25.5 t-79.5 -44.5t-86.5 -66z" />
<glyph unicode="&#xa1;" horiz-adv-x="545" d="M-20 -395l253 1089h144l-203 -1089h-194zM242 928q0 25 7 50.5t15 39.5q19 34 50 47.5t77 13.5q56 0 78.5 -18.5t22.5 -52.5q0 -20 -5.5 -40.5t-13.5 -41.5q-15 -39 -45.5 -55.5t-83.5 -16.5q-54 0 -78 18t-24 56z" />
<glyph unicode="&#xa2;" horiz-adv-x="1024" d="M90 356q0 70 13.5 150.5t43 161t76 154.5t111.5 131.5t150 91.5t192 34l72 209h116l-76 -223q78 -20 133 -63.5t83 -114.5l-152 -82q-17 42 -44.5 69t-68.5 41l-270 -796q46 1 84 10.5t71 27.5t62.5 43.5t58.5 57.5l117 -96q-33 -42 -73 -77t-89 -60.5t-107 -39.5 t-128 -14h-45l-78 -231h-117l84 252q-57 18 -98.5 50.5t-68.5 79t-39.5 105.5t-12.5 129zM266 348q0 -74 21.5 -127.5t72.5 -79.5l265 787q-61 -5 -112 -33.5t-90.5 -73.5t-69 -102.5t-49 -120.5t-29 -127.5t-9.5 -122.5z" />
<glyph unicode="&#xa3;" horiz-adv-x="1239" d="M43 0l33 162q41 10 74.5 36t60 62t46.5 78.5t34.5 86.5t24 85t14.5 74h-144l29 137h131q6 28 7 61t1 86q0 132 36.5 233.5t102 170.5t156.5 104t199 35q80 0 141 -16t107.5 -45.5t80.5 -71t60 -92.5l-160 -92q-25 72 -88.5 114.5t-157.5 42.5q-68 0 -123.5 -23.5 t-94.5 -68.5t-60 -110t-21 -148q0 -45 -2.5 -89.5t-7.5 -90.5h352l-28 -137h-338q-12 -59 -29 -118t-42.5 -114t-63.5 -103.5t-92 -86.5h747l-31 -162h-954z" />
<glyph unicode="&#xa4;" horiz-adv-x="1239" d="M117 164l194 198q-37 51 -54 109t-17 115q0 59 15.5 116.5t53.5 108.5l-192 195l92 92l192 -191q54 41 112.5 58.5t115.5 17.5q59 0 117 -16.5t112 -57.5l193 189l90 -92l-187 -191q41 -54 57.5 -112t16.5 -117t-18.5 -115t-57.5 -113l189 -194l-90 -90l-195 190 q-59 -41 -114 -55t-113 -14q-57 0 -114 16.5t-109 54.5l-197 -192zM385 586q0 -51 18.5 -97t51 -80.5t77 -54.5t97.5 -20q55 0 101.5 19.5t80.5 54t53 80t19 98.5q0 51 -18 98t-51.5 82.5t-80.5 56.5t-104 21q-55 0 -100 -21t-77 -56t-49.5 -82t-17.5 -99z" />
<glyph unicode="&#xa5;" horiz-adv-x="1239" d="M133 367l25 127h362l21 92l-17 49h-334l25 127h268q-51 153 -101 311.5t-101 310.5h184l197 -618l448 618h205l-471 -622h272l-24 -127h-340l-33 -43q-5 -26 -11.5 -49t-11.5 -49h363l-23 -127h-364q-19 -93 -39.5 -183.5t-38.5 -183.5h-174l78 367h-365z" />
<glyph unicode="&#xa6;" horiz-adv-x="852" d="M381 242h156v-637h-156v637zM381 883v637h156v-637h-156z" />
<glyph unicode="&#xa7;" horiz-adv-x="985" d="M-29 -211l144 98q19 -30 42 -49.5t49 -31.5t54 -16.5t57 -4.5q37 0 77.5 8.5t74.5 28t56 51.5t22 80q0 49 -46.5 93.5t-131.5 100.5q-76 52 -127.5 93.5t-83 83t-45 86t-13.5 102.5q0 54 24.5 102.5t65 92t93.5 82t110 73.5q-29 25 -50 50.5t-34.5 54t-20.5 62t-7 75.5 q0 60 27.5 115.5t80 98t128.5 68t173 25.5q67 0 116.5 -10.5t89 -30t72 -48.5t64.5 -65l-131 -100q-18 18 -39.5 36.5t-48 33.5t-59 24t-72.5 9q-56 0 -99 -11.5t-72 -32t-43.5 -48t-14.5 -58.5q0 -29 11 -54.5t31.5 -49.5t51 -48.5t69.5 -52.5q82 -59 136 -105.5t86 -87.5 t45.5 -81t13.5 -86q0 -51 -16 -95.5t-50.5 -87t-89.5 -85.5t-133 -91q58 -53 85.5 -107.5t27.5 -129.5q0 -68 -31 -125.5t-86 -99.5t-130.5 -65.5t-164.5 -23.5q-70 0 -125.5 11.5t-97.5 32.5t-70.5 49t-44.5 61zM266 526q0 -24 6.5 -46.5t30.5 -50.5t71 -66t128 -93 q45 23 86.5 53.5t72.5 63.5t49.5 67t18.5 66q0 34 -18 65.5t-49 63t-72.5 63t-87.5 64.5q-51 -32 -94.5 -63t-75 -62t-49 -62t-17.5 -63z" />
<glyph unicode="&#xa8;" horiz-adv-x="1063" d="M399 1274q0 6 1.5 16.5t4.5 22.5t6.5 24t8.5 21q14 32 39 47.5t73 15.5q51 0 71 -16.5t20 -50.5q0 -9 -2 -21.5t-5 -25t-7.5 -23.5t-8.5 -18q-17 -32 -42 -45t-69 -13q-52 0 -71 17.5t-19 48.5zM786 1274q0 6 1.5 16.5t4.5 22.5t6.5 24t8.5 21q14 32 39.5 47.5t73.5 15.5 q51 0 70.5 -16.5t19.5 -50.5q0 -9 -2 -21.5t-5 -25t-7.5 -23.5t-8.5 -18q-17 -32 -42 -45t-68 -13q-53 0 -72 17.5t-19 48.5z" />
<glyph unicode="&#xa9;" horiz-adv-x="1855" d="M147 610q0 114 28.5 217.5t80.5 192.5t125 161t162 123.5t191.5 79t213.5 27.5q114 0 217.5 -28.5t192.5 -80.5t161 -125t123.5 -162t79 -191.5t27.5 -213.5q0 -114 -28.5 -218.5t-80.5 -194t-125 -162t-162 -123.5t-191.5 -79t-213.5 -28q-113 0 -216.5 28.5t-192.5 81 t-161.5 126t-123.5 163t-79 192t-28 214.5zM287 610q0 -92 23.5 -178t66.5 -160t103.5 -135t133.5 -104.5t157.5 -67.5t176.5 -24t177 24t159 67.5t134.5 104.5t103.5 135t66.5 159.5t23.5 178.5q0 92 -23.5 177t-66.5 159t-103.5 134.5t-134.5 104t-159 67.5t-177 24 t-176.5 -24t-157.5 -67.5t-133.5 -104t-103.5 -134.5t-66.5 -159t-23.5 -177zM580 612q0 221 93.5 333t295.5 112q61 0 111 -13.5t89.5 -37.5t69.5 -57t51 -72l-127 -78q-13 25 -30 48t-40 40.5t-54 28t-72 10.5q-65 0 -110.5 -19.5t-74 -59t-41 -98.5t-12.5 -137 q0 -161 57 -237t183 -76q38 0 69 10.5t56.5 28.5t45.5 42t36 52l127 -74q-24 -40 -54 -74.5t-69 -60t-90 -40.5t-117 -15q-203 0 -298 111.5t-95 332.5z" />
<glyph unicode="&#xaa;" horiz-adv-x="780" d="M180 936q0 47 9 101t27.5 107t47.5 102t68.5 86.5t90.5 60t114 22.5q61 0 105.5 -20.5t76.5 -57.5l12 58h131l-143 -682h-131l16 82q-24 -21 -49.5 -39.5t-52.5 -33t-56 -22.5t-61 -8q-109 0 -157 62.5t-48 181.5zM313 936q0 -75 26.5 -102t82.5 -27q57 0 109 28t96 68 l69 328q-31 35 -67.5 52t-91.5 17q-58 0 -100 -35t-69.5 -89t-41 -118t-13.5 -122z" />
<glyph unicode="&#xab;" horiz-adv-x="1200" d="M70 524l485 471h199l-492 -481l283 -461h-191zM549 524l485 471h199l-492 -481l283 -461h-190z" />
<glyph unicode="&#xac;" horiz-adv-x="1427" d="M184 827v144h1100v-604h-143v460h-957z" />
<glyph unicode="&#xad;" horiz-adv-x="811" d="M82 440l37 172h610l-37 -172h-610z" />
<glyph unicode="&#xae;" horiz-adv-x="1855" d="M147 610q0 114 28.5 217.5t80.5 192.5t125 161t162 123.5t191.5 79t213.5 27.5q114 0 217.5 -28.5t192.5 -80.5t161 -125t123.5 -162t79 -191.5t27.5 -213.5q0 -114 -28.5 -218.5t-80.5 -194t-125 -162t-162 -123.5t-191.5 -79t-213.5 -28q-113 0 -216.5 28.5t-192.5 81 t-161.5 126t-123.5 163t-79 192t-28 214.5zM287 610q0 -92 23.5 -178t66.5 -160t103.5 -135t133.5 -104.5t157.5 -67.5t176.5 -24t177 24t159 67.5t134.5 104.5t103.5 135t66.5 159.5t23.5 178.5q0 92 -23.5 177t-66.5 159t-103.5 134.5t-134.5 104t-159 67.5t-177 24 t-176.5 -24t-157.5 -67.5t-133.5 -104t-103.5 -134.5t-66.5 -159t-23.5 -177zM662 199v852h276q75 0 134 -12t99 -40.5t61 -76.5t21 -119q0 -56 -11 -97.5t-32 -71.5t-51.5 -49t-68.5 -30l231 -356h-172l-217 333h-123v-333h-147zM809 659h123q50 0 82.5 7t52 23.5 t27.5 42.5t8 65q0 36 -8.5 60.5t-27.5 39t-50.5 21t-77.5 6.5h-129v-265z" />
<glyph unicode="&#xaf;" horiz-adv-x="1063" d="M389 1255l29 140h598l-29 -140h-598z" />
<glyph unicode="&#xb0;" horiz-adv-x="864" d="M285 1241q0 58 22.5 109t61 89t89 59.5t107.5 21.5q59 0 110.5 -22t89.5 -60.5t59.5 -89t21.5 -107.5q0 -59 -22.5 -111t-61 -90t-89 -60t-106.5 -22q-57 0 -108.5 22t-90 60t-61 90t-22.5 111zM403 1241q0 -34 12.5 -63.5t35 -52t52 -35.5t64.5 -13q34 0 63 13t50.5 35 t34 51.5t12.5 62.5q0 34 -12.5 63.5t-34 51.5t-50.5 34.5t-63 12.5q-35 0 -65 -13t-52 -35.5t-34.5 -51.5t-12.5 -60z" />
<glyph unicode="&#xb1;" horiz-adv-x="1427" d="M195 0v143h1099v-143h-1099zM195 809v143h477v478h143v-478h479v-143h-479v-479h-143v479h-477z" />
<glyph unicode="&#xb2;" horiz-adv-x="881" d="M127 655l29 138q59 37 125 80.5t129 87.5t118.5 85.5t94.5 75.5q49 44 72.5 86t23.5 80q0 54 -28.5 78.5t-90.5 24.5q-66 0 -117.5 -29.5t-97.5 -77.5l-117 78q60 74 148 118t196 44q283 0 283 -217q0 -81 -36.5 -144t-110.5 -123q-57 -46 -153 -111t-220 -143h434 l-29 -131h-653z" />
<glyph unicode="&#xb3;" horiz-adv-x="881" d="M145 782l129 78q9 -17 25 -33.5t37 -30t46 -22t54 -8.5q55 0 94.5 13t65 35.5t37.5 52t12 61.5q0 63 -38.5 88.5t-119.5 25.5h-88l27 127h76q48 0 88 9.5t68.5 27.5t44.5 43.5t16 57.5q0 48 -34.5 69t-88.5 21q-65 0 -115 -24.5t-96 -74.5l-115 76q23 28 55 55t74 48 t94 34t117 13q79 0 132.5 -16t86 -44t46.5 -66t14 -81q0 -35 -9.5 -64.5t-31 -54t-56 -44.5t-85.5 -38q54 -26 83 -73t29 -113q0 -58 -23.5 -111t-71.5 -93.5t-121 -64.5t-173 -24q-114 0 -186.5 41t-98.5 104z" />
<glyph unicode="&#xb4;" horiz-adv-x="1063" d="M616 1208l240 361h242l-332 -361h-150z" />
<glyph unicode="&#xb5;" horiz-adv-x="1147" d="M-55 -395l303 1444h170l-168 -793q31 -53 85.5 -85t139.5 -32q72 0 149.5 35.5t149.5 108.5l162 766h172l-221 -1049h-162l14 119q-75 -76 -146 -113t-153 -37q-74 0 -128.5 22.5t-102.5 71.5l-96 -458h-168z" />
<glyph unicode="&#xb6;" horiz-adv-x="1233" d="M141 913q0 91 35.5 176t107 150.5t178.5 105t251 39.5h643l-29 -133h-188l-351 -1646h-155l350 1646h-190l-351 -1646h-157l200 936q-68 0 -130.5 20t-110 64t-75.5 115t-28 173z" />
<glyph unicode="&#xb7;" horiz-adv-x="545" d="M174 704q0 20 5.5 43t15.5 43q15 35 45.5 51.5t81.5 16.5q54 0 78 -17.5t24 -54.5q0 -23 -5 -46.5t-17 -45.5q-19 -34 -50 -47.5t-77 -13.5q-56 0 -78.5 18.5t-22.5 52.5z" />
<glyph unicode="&#xb8;" horiz-adv-x="1063" d="M53 -348l72 100q15 -7 36 -13t43.5 -10.5t45.5 -7t43 -2.5q25 0 52 4t49 14.5t36 28.5t14 46q0 37 -39 60t-114 28l84 118h104l-35 -49q66 -20 96.5 -60.5t30.5 -98.5q0 -101 -77.5 -153t-214.5 -52q-38 0 -74.5 5t-67 12t-53 15.5t-31.5 14.5z" />
<glyph unicode="&#xb9;" horiz-adv-x="881" d="M328 1241l22 107q67 3 113 12t78.5 27.5t56 47t45.5 70.5h123l-180 -850h-160l123 586h-221z" />
<glyph unicode="&#xba;" horiz-adv-x="768" d="M180 946q0 59 15 128.5t49 137.5q46 94 126.5 148.5t188.5 54.5q71 0 120 -17t80 -50t44.5 -80.5t13.5 -108.5q0 -35 -4.5 -75.5t-15 -82t-28.5 -82.5t-44 -77q-57 -81 -128.5 -114.5t-164.5 -33.5q-68 0 -116 17t-78 49t-44 79t-14 107zM315 944q0 -65 29.5 -100 t101.5 -35q57 0 94.5 22t65.5 64q35 56 55.5 125.5t20.5 140.5q0 37 -6 63.5t-21 43t-40.5 24.5t-63.5 8q-68 0 -110 -31.5t-68 -88.5q-25 -53 -41.5 -113.5t-16.5 -122.5z" />
<glyph unicode="&#xbb;" horiz-adv-x="1200" d="M-33 53l492 482l-283 460h191l284 -471l-485 -471h-199zM446 53l492 482l-283 460h191l284 -471l-485 -471h-199z" />
<glyph unicode="&#xbc;" horiz-adv-x="1907" d="M241 1123l22 107q67 3 113 12t78.5 27.5t56 47t45.5 70.5h123l-180 -850h-160l123 586h-221zM293 -55l1063 1489h176l-1067 -1489h-172zM908 173l26 125l606 542h142l-117 -542h125l-27 -125h-125l-36 -183h-160l37 183h-471zM1110 298h295l70 325z" />
<glyph unicode="&#xbd;" horiz-adv-x="1907" d="M211 -55l1063 1489h176l-1067 -1489h-172zM223 1125l22 107q67 3 113 12t78.5 27.5t56 47t45.5 70.5h123l-180 -850h-160l123 586h-221zM922 -12l29 138q59 37 125 80.5t129 87.5t118.5 85.5t94.5 75.5q49 44 72.5 86t23.5 80q0 54 -28.5 78.5t-90.5 24.5 q-66 0 -117.5 -29.5t-97.5 -77.5l-117 78q60 74 148 118t196 44q283 0 283 -217q0 -81 -36.5 -144t-110.5 -123q-57 -46 -153 -111t-220 -143h434l-29 -131h-653z" />
<glyph unicode="&#xbe;" horiz-adv-x="1907" d="M99 666l129 78q9 -17 25 -33.5t37 -30t46 -22t54 -8.5q55 0 94.5 13t65 35.5t37.5 52t12 61.5q0 63 -38.5 88.5t-119.5 25.5h-88l27 127h76q48 0 88 9.5t68.5 27.5t44.5 43.5t16 57.5q0 48 -34.5 69t-88.5 21q-65 0 -115 -24.5t-96 -74.5l-115 76q23 28 55 55t74 48 t94 34t117 13q79 0 132.5 -16t86 -44t46.5 -66t14 -81q0 -35 -9.5 -64.5t-31 -54t-56 -44.5t-85.5 -38q54 -26 83 -73t29 -113q0 -58 -23.5 -111t-71.5 -93.5t-121 -64.5t-173 -24q-114 0 -186.5 41t-98.5 104zM457 -55l1063 1489h176l-1067 -1489h-172zM1037 171l26 125 l606 542h142l-117 -542h125l-27 -125h-125l-36 -183h-160l37 183h-471zM1239 296h295l70 325z" />
<glyph unicode="&#xbf;" horiz-adv-x="1028" d="M-18 -74q0 93 35 170.5t101.5 146t163 130t220.5 123.5l41 196h170l-60 -282q-114 -59 -202.5 -110t-149 -105.5t-92 -117t-31.5 -143.5t54 -123t159 -42q52 0 95.5 11t79.5 29.5t64.5 44.5t51.5 56l131 -105q-33 -44 -76 -81t-96.5 -63.5t-118 -41t-141.5 -14.5 q-93 0 -167 20t-125.5 60.5t-79 100.5t-27.5 140zM561 928q0 25 7.5 50.5t15.5 39.5q18 34 49 47.5t78 13.5q55 0 77.5 -18.5t22.5 -52.5q0 -20 -5 -40.5t-13 -41.5q-16 -39 -46.5 -55.5t-82.5 -16.5q-54 0 -78.5 18t-24.5 56z" />
<glyph unicode="&#xc0;" horiz-adv-x="1262" d="M-47 0l747 1384h236l176 -1384h-188l-43 360h-539l-197 -360h-192zM426 528h434l-78 674zM624 1905h217l113 -361h-121z" />
<glyph unicode="&#xc1;" horiz-adv-x="1262" d="M-47 0l747 1384h236l176 -1384h-188l-43 360h-539l-197 -360h-192zM426 528h434l-78 674zM737 1544l240 361h242l-332 -361h-150z" />
<glyph unicode="&#xc2;" horiz-adv-x="1262" d="M-47 0l747 1384h236l176 -1384h-188l-43 360h-539l-197 -360h-192zM426 528h434l-78 674zM506 1544l301 361h207l146 -361h-140l-129 238l-231 -238h-154z" />
<glyph unicode="&#xc3;" horiz-adv-x="1262" d="M-47 0l747 1384h236l176 -1384h-188l-43 360h-539l-197 -360h-192zM426 528h434l-78 674zM485 1557q34 131 103.5 196.5t160.5 65.5q58 0 95.5 -22t66 -49t54.5 -49t61 -22q49 0 83 37t48 92h119q-31 -124 -98 -193t-175 -69q-46 0 -77.5 10.5t-55 26.5t-40 34t-32 34 t-32.5 26.5t-39 10.5q-42 0 -74 -33.5t-49 -95.5h-119z" />
<glyph unicode="&#xc4;" horiz-adv-x="1262" d="M-47 0l747 1384h236l176 -1384h-188l-43 360h-539l-197 -360h-192zM426 528h434l-78 674zM569 1610q0 6 1.5 16.5t4.5 22.5t6.5 24t8.5 21q14 32 39 47.5t73 15.5q51 0 71 -16.5t20 -50.5q0 -9 -2 -21.5t-5 -25t-7.5 -23.5t-8.5 -18q-17 -32 -42 -45t-69 -13 q-52 0 -71 17.5t-19 48.5zM956 1610q0 6 1.5 16.5t4.5 22.5t6.5 24t8.5 21q14 32 39.5 47.5t73.5 15.5q51 0 70.5 -16.5t19.5 -50.5q0 -9 -2 -21.5t-5 -25t-7.5 -23.5t-8.5 -18q-17 -32 -42 -45t-68 -13q-53 0 -72 17.5t-19 48.5z" />
<glyph unicode="&#xc5;" horiz-adv-x="1262" d="M-47 0l747 1384h236l176 -1384h-188l-43 360h-539l-197 -360h-192zM426 528h434l-78 674zM694 1651q0 44 16 84t44.5 70.5t69 48.5t89.5 18q79 0 121.5 -41t42.5 -113q0 -42 -14 -82t-41.5 -71.5t-69.5 -50.5t-98 -19q-45 0 -76 13t-49.5 35t-26.5 50t-8 58zM780 1659 q0 -38 18.5 -60t69.5 -22q54 0 88.5 35.5t34.5 97.5q0 37 -21 58.5t-67 21.5q-30 0 -53 -12t-38.5 -30.5t-23.5 -42t-8 -46.5z" />
<glyph unicode="&#xc6;" horiz-adv-x="1712" d="M-63 0l811 1384h1024l-35 -167h-592l-86 -404h516l-37 -168h-516l-100 -477h591l-34 -168h-772l79 383h-438l-219 -383h-192zM446 551h377l142 666h-138z" />
<glyph unicode="&#xc7;" horiz-adv-x="1280" d="M117 463q0 94 16 201t51.5 212.5t92 202.5t138 171.5t189 118.5t244.5 44q96 0 170 -18t130 -52.5t95.5 -84t67.5 -111.5l-162 -94q-21 49 -50 86t-68.5 61.5t-90.5 36.5t-117 12q-89 0 -161.5 -34.5t-130 -93.5t-99 -137.5t-69 -166t-41 -179.5t-13.5 -177 q0 -156 73 -241t206 -85q74 0 135 15t112 43t95 68t84 89l127 -114q-40 -50 -85 -94t-100 -78t-122.5 -57t-151.5 -32q-2 -2 -2 -3t-2 -3q66 -20 96.5 -60.5t30.5 -98.5q0 -101 -78 -153t-215 -52q-38 0 -74 5t-67 12t-53 15.5t-31 14.5l71 100q15 -7 36 -13t43.5 -10.5 t45.5 -7t43 -2.5q25 0 52 4t49.5 14.5t36.5 28.5t14 46q0 37 -39 60t-115 28l49 71q-117 2 -202.5 36t-142 96.5t-84 153t-27.5 206.5z" />
<glyph unicode="&#xc8;" horiz-adv-x="1130" d="M68 0l292 1384h830l-35 -167h-649l-86 -404h555l-35 -168h-555l-102 -477h649l-35 -168h-829zM559 1905h217l113 -361h-121z" />
<glyph unicode="&#xc9;" horiz-adv-x="1130" d="M68 0l292 1384h830l-35 -167h-649l-86 -404h555l-35 -168h-555l-102 -477h649l-35 -168h-829zM686 1544l240 361h242l-332 -361h-150z" />
<glyph unicode="&#xca;" horiz-adv-x="1130" d="M68 0l292 1384h830l-35 -167h-649l-86 -404h555l-35 -168h-555l-102 -477h649l-35 -168h-829zM467 1544l301 361h207l146 -361h-140l-129 238l-231 -238h-154z" />
<glyph unicode="&#xcb;" horiz-adv-x="1130" d="M68 0l292 1384h830l-35 -167h-649l-86 -404h555l-35 -168h-555l-102 -477h649l-35 -168h-829zM501 1610q0 6 1.5 16.5t4.5 22.5t6.5 24t8.5 21q14 32 39 47.5t73 15.5q51 0 71 -16.5t20 -50.5q0 -9 -2 -21.5t-5 -25t-7.5 -23.5t-8.5 -18q-17 -32 -42 -45t-69 -13 q-52 0 -71 17.5t-19 48.5zM888 1610q0 6 1.5 16.5t4.5 22.5t6.5 24t8.5 21q14 32 39.5 47.5t73.5 15.5q51 0 70.5 -16.5t19.5 -50.5q0 -9 -2 -21.5t-5 -25t-7.5 -23.5t-8.5 -18q-17 -32 -42 -45t-68 -13q-53 0 -72 17.5t-19 48.5z" />
<glyph unicode="&#xcc;" horiz-adv-x="754" d="M-10 0l33 160h186l227 1067h-186l33 157h553l-33 -157h-187l-227 -1067h186l-32 -160h-553zM349 1905h217l113 -361h-121z" />
<glyph unicode="&#xcd;" horiz-adv-x="754" d="M-10 0l33 160h186l227 1067h-186l33 157h553l-33 -157h-187l-227 -1067h186l-32 -160h-553zM502 1544l240 361h242l-332 -361h-150z" />
<glyph unicode="&#xce;" horiz-adv-x="754" d="M-10 0l33 160h186l227 1067h-186l33 157h553l-33 -157h-187l-227 -1067h186l-32 -160h-553zM269 1544l301 361h207l146 -361h-140l-129 238l-231 -238h-154z" />
<glyph unicode="&#xcf;" horiz-adv-x="754" d="M-10 0l33 160h186l227 1067h-186l33 157h553l-33 -157h-187l-227 -1067h186l-32 -160h-553zM318 1610q0 6 1.5 16.5t4.5 22.5t6.5 24t8.5 21q14 32 39 47.5t73 15.5q51 0 71 -16.5t20 -50.5q0 -9 -2 -21.5t-5 -25t-7.5 -23.5t-8.5 -18q-17 -32 -42 -45t-69 -13 q-52 0 -71 17.5t-19 48.5zM705 1610q0 6 1.5 16.5t4.5 22.5t6.5 24t8.5 21q14 32 39.5 47.5t73.5 15.5q51 0 70.5 -16.5t19.5 -50.5q0 -9 -2 -21.5t-5 -25t-7.5 -23.5t-8.5 -18q-17 -32 -42 -45t-68 -13q-53 0 -72 17.5t-19 48.5z" />
<glyph unicode="&#xd0;" horiz-adv-x="1266" d="M53 627l29 141h135l131 616h342q131 0 230 -22.5t165.5 -76t100 -141.5t33.5 -218q0 -49 -6 -111t-19 -130t-33 -139t-48.5 -138.5t-66.5 -127.5t-85 -106q-50 -48 -111 -81.5t-130 -54t-144.5 -29.5t-155.5 -9h-365l131 627h-133zM272 168h150q136 0 234.5 29t166.5 98 q45 45 82.5 119.5t63.5 161.5t40.5 178t14.5 170q0 82 -17.5 138t-61 90.5t-116.5 49.5t-184 15h-149l-97 -449h330l-29 -141h-331z" />
<glyph unicode="&#xd1;" horiz-adv-x="1358" d="M68 0l292 1384h250l346 -1087l232 1087h174l-293 -1384h-199l-376 1188l-252 -1188h-174zM506 1557q34 131 103.5 196.5t160.5 65.5q58 0 95.5 -22t66 -49t54.5 -49t61 -22q49 0 83 37t48 92h119q-31 -124 -98 -193t-175 -69q-46 0 -77.5 10.5t-55 26.5t-40 34t-32 34 t-32.5 26.5t-39 10.5q-42 0 -74 -33.5t-49 -95.5h-119z" />
<glyph unicode="&#xd2;" horiz-adv-x="1337" d="M117 469q0 53 6 112.5t18 122.5t31 127.5t45 126.5q40 94 93.5 177t127 145t171.5 97.5t227 35.5q222 0 338 -124t116 -365q0 -79 -14 -185t-49 -219q-36 -116 -90 -216t-131.5 -174t-182 -116.5t-241.5 -42.5q-132 0 -221 35.5t-143 100.5t-77.5 157t-23.5 205zM311 465 q0 -92 15.5 -155t49.5 -102t87.5 -56t128.5 -17q163 0 270.5 105.5t175.5 322.5q15 49 26 99.5t18 98.5t10.5 91t3.5 78q0 161 -65 240t-214 79q-81 0 -144 -24t-113 -68.5t-89 -108.5t-72 -145q-23 -57 -39.5 -117t-27.5 -117t-16 -109.5t-5 -94.5zM688 1905h217l113 -361 h-121z" />
<glyph unicode="&#xd3;" horiz-adv-x="1337" d="M117 469q0 53 6 112.5t18 122.5t31 127.5t45 126.5q40 94 93.5 177t127 145t171.5 97.5t227 35.5q222 0 338 -124t116 -365q0 -79 -14 -185t-49 -219q-36 -116 -90 -216t-131.5 -174t-182 -116.5t-241.5 -42.5q-132 0 -221 35.5t-143 100.5t-77.5 157t-23.5 205zM311 465 q0 -92 15.5 -155t49.5 -102t87.5 -56t128.5 -17q163 0 270.5 105.5t175.5 322.5q15 49 26 99.5t18 98.5t10.5 91t3.5 78q0 161 -65 240t-214 79q-81 0 -144 -24t-113 -68.5t-89 -108.5t-72 -145q-23 -57 -39.5 -117t-27.5 -117t-16 -109.5t-5 -94.5zM739 1544l240 361h242 l-332 -361h-150z" />
<glyph unicode="&#xd4;" horiz-adv-x="1337" d="M117 469q0 53 6 112.5t18 122.5t31 127.5t45 126.5q40 94 93.5 177t127 145t171.5 97.5t227 35.5q222 0 338 -124t116 -365q0 -79 -14 -185t-49 -219q-36 -116 -90 -216t-131.5 -174t-182 -116.5t-241.5 -42.5q-132 0 -221 35.5t-143 100.5t-77.5 157t-23.5 205zM311 465 q0 -92 15.5 -155t49.5 -102t87.5 -56t128.5 -17q163 0 270.5 105.5t175.5 322.5q15 49 26 99.5t18 98.5t10.5 91t3.5 78q0 161 -65 240t-214 79q-81 0 -144 -24t-113 -68.5t-89 -108.5t-72 -145q-23 -57 -39.5 -117t-27.5 -117t-16 -109.5t-5 -94.5zM534 1544l301 361h207 l146 -361h-140l-129 238l-231 -238h-154z" />
<glyph unicode="&#xd5;" horiz-adv-x="1337" d="M117 469q0 53 6 112.5t18 122.5t31 127.5t45 126.5q40 94 93.5 177t127 145t171.5 97.5t227 35.5q222 0 338 -124t116 -365q0 -79 -14 -185t-49 -219q-36 -116 -90 -216t-131.5 -174t-182 -116.5t-241.5 -42.5q-132 0 -221 35.5t-143 100.5t-77.5 157t-23.5 205zM311 465 q0 -92 15.5 -155t49.5 -102t87.5 -56t128.5 -17q163 0 270.5 105.5t175.5 322.5q15 49 26 99.5t18 98.5t10.5 91t3.5 78q0 161 -65 240t-214 79q-81 0 -144 -24t-113 -68.5t-89 -108.5t-72 -145q-23 -57 -39.5 -117t-27.5 -117t-16 -109.5t-5 -94.5zM504 1557 q34 131 103.5 196.5t160.5 65.5q58 0 95.5 -22t66 -49t54.5 -49t61 -22q49 0 83 37t48 92h119q-31 -124 -98 -193t-175 -69q-46 0 -77.5 10.5t-55 26.5t-40 34t-32 34t-32.5 26.5t-39 10.5q-42 0 -74 -33.5t-49 -95.5h-119z" />
<glyph unicode="&#xd6;" horiz-adv-x="1337" d="M117 469q0 53 6 112.5t18 122.5t31 127.5t45 126.5q40 94 93.5 177t127 145t171.5 97.5t227 35.5q222 0 338 -124t116 -365q0 -79 -14 -185t-49 -219q-36 -116 -90 -216t-131.5 -174t-182 -116.5t-241.5 -42.5q-132 0 -221 35.5t-143 100.5t-77.5 157t-23.5 205zM311 465 q0 -92 15.5 -155t49.5 -102t87.5 -56t128.5 -17q163 0 270.5 105.5t175.5 322.5q15 49 26 99.5t18 98.5t10.5 91t3.5 78q0 161 -65 240t-214 79q-81 0 -144 -24t-113 -68.5t-89 -108.5t-72 -145q-23 -57 -39.5 -117t-27.5 -117t-16 -109.5t-5 -94.5zM589 1610q0 6 1.5 16.5 t4.5 22.5t6.5 24t8.5 21q14 32 39 47.5t73 15.5q51 0 71 -16.5t20 -50.5q0 -9 -2 -21.5t-5 -25t-7.5 -23.5t-8.5 -18q-17 -32 -42 -45t-69 -13q-52 0 -71 17.5t-19 48.5zM976 1610q0 6 1.5 16.5t4.5 22.5t6.5 24t8.5 21q14 32 39.5 47.5t73.5 15.5q51 0 70.5 -16.5 t19.5 -50.5q0 -9 -2 -21.5t-5 -25t-7.5 -23.5t-8.5 -18q-17 -32 -42 -45t-68 -13q-53 0 -72 17.5t-19 48.5z" />
<glyph unicode="&#xd7;" horiz-adv-x="1427" d="M225 180l408 406l-408 407l103 101l405 -406l408 406l100 -101l-405 -407l405 -406l-100 -102l-408 407l-405 -407z" />
<glyph unicode="&#xd8;" horiz-adv-x="1337" d="M-68 -115l246 281q-34 60 -47.5 136t-13.5 167q0 88 16 192t51 209t90.5 203t135.5 173.5t185.5 121t240.5 45.5q218 0 331 -115l166 191h166l-258 -295q49 -110 49 -270q0 -59 -7.5 -131t-24.5 -150t-45 -158.5t-68 -155t-94 -140t-123.5 -114t-155.5 -76.5t-190 -28 q-112 0 -191 24.5t-135 72.5l-158 -183h-166zM311 465q0 -35 3 -69.5t10 -63.5l718 823q-66 94 -225 94q-98 0 -173.5 -40.5t-131.5 -106.5t-94.5 -150.5t-62 -171.5t-34 -169.5t-10.5 -145.5zM381 211q70 -76 221 -76q95 0 169 41.5t129 109.5t93 153.5t61 174t33.5 171.5 t10.5 145q0 48 -6 92z" />
<glyph unicode="&#xd9;" horiz-adv-x="1376" d="M160 334q0 111 35 266l165 784h181l-166 -786q-8 -35 -14 -66.5t-10.5 -63t-6.5 -64.5t-2 -70q0 -99 60 -150t190 -51q98 0 168 22t121 77t87 146.5t66 231.5l166 774h180l-170 -806q-38 -182 -90.5 -299.5t-126.5 -186.5t-174 -96t-233 -27q-115 0 -196 24t-132 70 t-74.5 114t-23.5 157zM661 1905h217l113 -361h-121z" />
<glyph unicode="&#xda;" horiz-adv-x="1376" d="M160 334q0 111 35 266l165 784h181l-166 -786q-8 -35 -14 -66.5t-10.5 -63t-6.5 -64.5t-2 -70q0 -99 60 -150t190 -51q98 0 168 22t121 77t87 146.5t66 231.5l166 774h180l-170 -806q-38 -182 -90.5 -299.5t-126.5 -186.5t-174 -96t-233 -27q-115 0 -196 24t-132 70 t-74.5 114t-23.5 157zM755 1544l240 361h242l-332 -361h-150z" />
<glyph unicode="&#xdb;" horiz-adv-x="1376" d="M160 334q0 111 35 266l165 784h181l-166 -786q-8 -35 -14 -66.5t-10.5 -63t-6.5 -64.5t-2 -70q0 -99 60 -150t190 -51q98 0 168 22t121 77t87 146.5t66 231.5l166 774h180l-170 -806q-38 -182 -90.5 -299.5t-126.5 -186.5t-174 -96t-233 -27q-115 0 -196 24t-132 70 t-74.5 114t-23.5 157zM573 1544l301 361h207l146 -361h-140l-129 238l-231 -238h-154z" />
<glyph unicode="&#xdc;" horiz-adv-x="1376" d="M160 334q0 111 35 266l165 784h181l-166 -786q-8 -35 -14 -66.5t-10.5 -63t-6.5 -64.5t-2 -70q0 -99 60 -150t190 -51q98 0 168 22t121 77t87 146.5t66 231.5l166 774h180l-170 -806q-38 -182 -90.5 -299.5t-126.5 -186.5t-174 -96t-233 -27q-115 0 -196 24t-132 70 t-74.5 114t-23.5 157zM622 1610q0 6 1.5 16.5t4.5 22.5t6.5 24t8.5 21q14 32 39 47.5t73 15.5q51 0 71 -16.5t20 -50.5q0 -9 -2 -21.5t-5 -25t-7.5 -23.5t-8.5 -18q-17 -32 -42 -45t-69 -13q-52 0 -71 17.5t-19 48.5zM1009 1610q0 6 1.5 16.5t4.5 22.5t6.5 24t8.5 21 q14 32 39.5 47.5t73.5 15.5q51 0 70.5 -16.5t19.5 -50.5q0 -9 -2 -21.5t-5 -25t-7.5 -23.5t-8.5 -18q-17 -32 -42 -45t-68 -13q-53 0 -72 17.5t-19 48.5z" />
<glyph unicode="&#xdd;" horiz-adv-x="1124" d="M223 1384h189l180 -673l463 673h211l-611 -849l-112 -535h-185l111 526zM643 1544l240 361h242l-332 -361h-150z" />
<glyph unicode="&#xde;" horiz-adv-x="1157" d="M68 0l292 1384h181l-45 -215h227q94 0 168.5 -16t125.5 -52.5t78 -97t27 -149.5q0 -123 -30 -232t-97.5 -191t-175.5 -129.5t-264 -47.5h-254l-53 -254h-180zM338 422h235q69 0 122 17t92.5 46t66 68.5t42.5 85t23 94.5t7 98q0 43 -11 75t-37 53t-70 31.5t-110 10.5h-237 z" />
<glyph unicode="&#xdf;" horiz-adv-x="1149" d="M55 0l226 1061q23 109 61 194.5t95 144t134 89.5t177 31q177 0 261.5 -73t84.5 -216q0 -65 -22 -121.5t-64 -103t-103.5 -81t-140.5 -53.5q136 -17 203 -94t67 -200q0 -81 -20 -169.5t-58 -168.5q-62 -131 -169.5 -201t-270.5 -70q-42 0 -90 9.5t-88 21.5l33 162 q37 -19 81 -30t91 -11q88 0 146.5 44t98.5 132q28 59 47 129t19 139q0 67 -25 109t-69.5 65t-105 31t-132.5 8l33 152q70 0 136 17.5t116 54t80.5 93t30.5 134.5q0 74 -45 107.5t-130 33.5q-65 0 -113 -20t-83 -60.5t-59 -102.5t-42 -145l-221 -1042h-170z" />
<glyph unicode="&#xe0;" d="M92 342q0 70 13.5 151.5t41 163.5t71 158t103 135t136.5 94t172 35q96 0 162.5 -30.5t115.5 -85.5l19 86h170l-222 -1049h-169l26 125q-37 -32 -75 -60t-78.5 -49.5t-85 -34t-93.5 -12.5q-83 0 -141.5 24.5t-95 72t-53.5 117t-17 159.5zM266 338q0 -116 40.5 -165.5 t127.5 -49.5q45 0 89 12.5t86 34t81 49.5t74 60l113 534q-50 54 -108 83.5t-144 29.5q-62 0 -112.5 -27t-90.5 -73t-69.5 -106t-48.5 -125t-28.5 -131.5t-9.5 -125.5zM435 1569h217l113 -361h-121z" />
<glyph unicode="&#xe1;" d="M92 342q0 70 13.5 151.5t41 163.5t71 158t103 135t136.5 94t172 35q96 0 162.5 -30.5t115.5 -85.5l19 86h170l-222 -1049h-169l26 125q-37 -32 -75 -60t-78.5 -49.5t-85 -34t-93.5 -12.5q-83 0 -141.5 24.5t-95 72t-53.5 117t-17 159.5zM266 338q0 -116 40.5 -165.5 t127.5 -49.5q45 0 89 12.5t86 34t81 49.5t74 60l113 534q-50 54 -108 83.5t-144 29.5q-62 0 -112.5 -27t-90.5 -73t-69.5 -106t-48.5 -125t-28.5 -131.5t-9.5 -125.5zM560 1208l240 361h242l-332 -361h-150z" />
<glyph unicode="&#xe2;" d="M92 342q0 70 13.5 151.5t41 163.5t71 158t103 135t136.5 94t172 35q96 0 162.5 -30.5t115.5 -85.5l19 86h170l-222 -1049h-169l26 125q-37 -32 -75 -60t-78.5 -49.5t-85 -34t-93.5 -12.5q-83 0 -141.5 24.5t-95 72t-53.5 117t-17 159.5zM266 338q0 -116 40.5 -165.5 t127.5 -49.5q45 0 89 12.5t86 34t81 49.5t74 60l113 534q-50 54 -108 83.5t-144 29.5q-62 0 -112.5 -27t-90.5 -73t-69.5 -106t-48.5 -125t-28.5 -131.5t-9.5 -125.5zM356 1208l301 361h207l146 -361h-140l-129 238l-231 -238h-154z" />
<glyph unicode="&#xe3;" d="M92 342q0 70 13.5 151.5t41 163.5t71 158t103 135t136.5 94t172 35q96 0 162.5 -30.5t115.5 -85.5l19 86h170l-222 -1049h-169l26 125q-37 -32 -75 -60t-78.5 -49.5t-85 -34t-93.5 -12.5q-83 0 -141.5 24.5t-95 72t-53.5 117t-17 159.5zM266 338q0 -116 40.5 -165.5 t127.5 -49.5q45 0 89 12.5t86 34t81 49.5t74 60l113 534q-50 54 -108 83.5t-144 29.5q-62 0 -112.5 -27t-90.5 -73t-69.5 -106t-48.5 -125t-28.5 -131.5t-9.5 -125.5zM315 1221q34 131 103.5 196.5t160.5 65.5q58 0 95.5 -22t66 -49t54.5 -49t61 -22q49 0 83 37t48 92h119 q-31 -124 -98 -193t-175 -69q-46 0 -77.5 10.5t-55 26.5t-40 34t-32 34t-32.5 26.5t-39 10.5q-42 0 -74 -33.5t-49 -95.5h-119z" />
<glyph unicode="&#xe4;" d="M92 342q0 70 13.5 151.5t41 163.5t71 158t103 135t136.5 94t172 35q96 0 162.5 -30.5t115.5 -85.5l19 86h170l-222 -1049h-169l26 125q-37 -32 -75 -60t-78.5 -49.5t-85 -34t-93.5 -12.5q-83 0 -141.5 24.5t-95 72t-53.5 117t-17 159.5zM266 338q0 -116 40.5 -165.5 t127.5 -49.5q45 0 89 12.5t86 34t81 49.5t74 60l113 534q-50 54 -108 83.5t-144 29.5q-62 0 -112.5 -27t-90.5 -73t-69.5 -106t-48.5 -125t-28.5 -131.5t-9.5 -125.5zM398 1274q0 6 1.5 16.5t4.5 22.5t6.5 24t8.5 21q14 32 39 47.5t73 15.5q51 0 71 -16.5t20 -50.5 q0 -9 -2 -21.5t-5 -25t-7.5 -23.5t-8.5 -18q-17 -32 -42 -45t-69 -13q-52 0 -71 17.5t-19 48.5zM785 1274q0 6 1.5 16.5t4.5 22.5t6.5 24t8.5 21q14 32 39.5 47.5t73.5 15.5q51 0 70.5 -16.5t19.5 -50.5q0 -9 -2 -21.5t-5 -25t-7.5 -23.5t-8.5 -18q-17 -32 -42 -45t-68 -13 q-53 0 -72 17.5t-19 48.5z" />
<glyph unicode="&#xe5;" d="M92 342q0 70 13.5 151.5t41 163.5t71 158t103 135t136.5 94t172 35q96 0 162.5 -30.5t115.5 -85.5l19 86h170l-222 -1049h-169l26 125q-37 -32 -75 -60t-78.5 -49.5t-85 -34t-93.5 -12.5q-83 0 -141.5 24.5t-95 72t-53.5 117t-17 159.5zM266 338q0 -116 40.5 -165.5 t127.5 -49.5q45 0 89 12.5t86 34t81 49.5t74 60l113 534q-50 54 -108 83.5t-144 29.5q-62 0 -112.5 -27t-90.5 -73t-69.5 -106t-48.5 -125t-28.5 -131.5t-9.5 -125.5zM513 1315q0 44 16 84t44.5 70.5t69 48.5t89.5 18q79 0 121.5 -41t42.5 -113q0 -42 -14 -82t-41.5 -71.5 t-69.5 -50.5t-98 -19q-45 0 -76 13t-49.5 35t-26.5 50t-8 58zM599 1323q0 -38 18.5 -60t69.5 -22q54 0 88.5 35.5t34.5 97.5q0 37 -21 58.5t-67 21.5q-30 0 -53 -12t-38.5 -30.5t-23.5 -42t-8 -46.5z" />
<glyph unicode="&#xe6;" horiz-adv-x="1690" d="M47 233q0 93 36.5 166t100.5 125.5t151.5 83.5t188.5 39l258 23l11 51q6 36 6 65q0 41 -14 68.5t-40 44.5t-62 24t-81 7q-96 0 -167 -32t-113 -85l-119 86q63 83 161.5 131.5t239.5 48.5q152 0 231.5 -39t104.5 -120q31 37 66 67t77.5 50t94 31t114.5 11q82 0 144 -23.5 t104 -66t63 -103t21 -134.5q0 -10 -1.5 -29t-3.5 -41t-5 -44t-6 -38l-21 -96h-672q-9 -47 -14.5 -88t-5.5 -78q0 -63 13.5 -105t41.5 -67.5t72 -36t104 -10.5q69 0 135 35t128 100l106 -98q-39 -45 -81.5 -79.5t-91.5 -58.5t-106 -36.5t-124 -12.5q-127 0 -213.5 45.5 t-126.5 141.5q-127 -94 -241 -140.5t-216 -46.5q-122 0 -185 68t-63 196zM227 242q0 -62 35 -90.5t92 -28.5q39 0 80 9t85.5 27.5t94.5 47.5t109 69q-2 14 -2 28v30q0 34 8 85.5t25 112.5l-170 -16q-63 -5 -126.5 -19t-115 -44t-83.5 -81t-32 -130zM946 639h502 q12 58 12 109q0 91 -45 139.5t-145 48.5q-71 0 -125.5 -24t-97.5 -76q-57 -71 -101 -197z" />
<glyph unicode="&#xe7;" horiz-adv-x="1010" d="M90 356q0 68 13.5 148t42.5 160t74.5 155t109.5 133t147.5 92.5t188.5 34.5q125 0 212 -47.5t126 -144.5l-152 -82q-25 62 -73 93.5t-130 31.5q-65 0 -119 -26.5t-96.5 -71t-74 -103t-52.5 -123t-31 -131.5t-10 -127q0 -51 11 -93.5t36.5 -72.5t66.5 -46.5t101 -16.5 q41 0 76 9.5t67 27t61.5 43.5t59.5 59l117 -96q-60 -77 -142.5 -128t-199.5 -65q66 -20 96.5 -60.5t30.5 -98.5q0 -101 -77.5 -153t-215.5 -52q-38 0 -74 5t-66.5 12t-53 15.5t-31.5 14.5l72 100q15 -7 36 -13t43.5 -10.5t45.5 -7t43 -2.5q25 0 52 4t49 14.5t36 28.5t14 46 q0 37 -39 60t-114 28l49 71q-87 6 -149 36t-101 79.5t-57.5 117.5t-18.5 152z" />
<glyph unicode="&#xe8;" horiz-adv-x="1059" d="M88 340q0 61 10 129t30 136.5t49 133.5t67 121q67 101 168 160t250 59q82 0 144 -23.5t103.5 -66t62.5 -103t21 -134.5q0 -10 -1.5 -29t-3.5 -41t-5 -44t-6 -38l-21 -96h-671q-10 -47 -15.5 -88t-5.5 -78q0 -63 13.5 -105t42 -67.5t72 -36t104.5 -10.5q68 0 134 35 t128 100l106 -98q-78 -89 -171.5 -138t-217.5 -49q-189 0 -288 91t-99 280zM315 639h502q12 58 12 109q0 91 -45 139.5t-145 48.5q-71 0 -125.5 -24t-97.5 -76q-57 -71 -101 -197zM503 1569h217l113 -361h-121z" />
<glyph unicode="&#xe9;" horiz-adv-x="1059" d="M88 340q0 61 10 129t30 136.5t49 133.5t67 121q67 101 168 160t250 59q82 0 144 -23.5t103.5 -66t62.5 -103t21 -134.5q0 -10 -1.5 -29t-3.5 -41t-5 -44t-6 -38l-21 -96h-671q-10 -47 -15.5 -88t-5.5 -78q0 -63 13.5 -105t42 -67.5t72 -36t104.5 -10.5q68 0 134 35 t128 100l106 -98q-78 -89 -171.5 -138t-217.5 -49q-189 0 -288 91t-99 280zM315 639h502q12 58 12 109q0 91 -45 139.5t-145 48.5q-71 0 -125.5 -24t-97.5 -76q-57 -71 -101 -197zM568 1208l240 361h242l-332 -361h-150z" />
<glyph unicode="&#xea;" horiz-adv-x="1059" d="M88 340q0 61 10 129t30 136.5t49 133.5t67 121q67 101 168 160t250 59q82 0 144 -23.5t103.5 -66t62.5 -103t21 -134.5q0 -10 -1.5 -29t-3.5 -41t-5 -44t-6 -38l-21 -96h-671q-10 -47 -15.5 -88t-5.5 -78q0 -63 13.5 -105t42 -67.5t72 -36t104.5 -10.5q68 0 134 35 t128 100l106 -98q-78 -89 -171.5 -138t-217.5 -49q-189 0 -288 91t-99 280zM315 639h502q12 58 12 109q0 91 -45 139.5t-145 48.5q-71 0 -125.5 -24t-97.5 -76q-57 -71 -101 -197zM347 1208l301 361h207l146 -361h-140l-129 238l-231 -238h-154z" />
<glyph unicode="&#xeb;" horiz-adv-x="1059" d="M88 340q0 61 10 129t30 136.5t49 133.5t67 121q67 101 168 160t250 59q82 0 144 -23.5t103.5 -66t62.5 -103t21 -134.5q0 -10 -1.5 -29t-3.5 -41t-5 -44t-6 -38l-21 -96h-671q-10 -47 -15.5 -88t-5.5 -78q0 -63 13.5 -105t42 -67.5t72 -36t104.5 -10.5q68 0 134 35 t128 100l106 -98q-78 -89 -171.5 -138t-217.5 -49q-189 0 -288 91t-99 280zM315 639h502q12 58 12 109q0 91 -45 139.5t-145 48.5q-71 0 -125.5 -24t-97.5 -76q-57 -71 -101 -197zM415 1274q0 6 1.5 16.5t4.5 22.5t6.5 24t8.5 21q14 32 39 47.5t73 15.5q51 0 71 -16.5 t20 -50.5q0 -9 -2 -21.5t-5 -25t-7.5 -23.5t-8.5 -18q-17 -32 -42 -45t-69 -13q-52 0 -71 17.5t-19 48.5zM802 1274q0 6 1.5 16.5t4.5 22.5t6.5 24t8.5 21q14 32 39.5 47.5t73.5 15.5q51 0 70.5 -16.5t19.5 -50.5q0 -9 -2 -21.5t-5 -25t-7.5 -23.5t-8.5 -18q-17 -32 -42 -45 t-68 -13q-53 0 -72 17.5t-19 48.5z" />
<glyph unicode="&#xec;" horiz-adv-x="502" d="M55 0l221 1049h170l-221 -1049h-170zM169 1569h217l113 -361h-121z" />
<glyph unicode="&#xed;" horiz-adv-x="502" d="M55 0l221 1049h170l-221 -1049h-170zM281 1208l240 361h242l-332 -361h-150z" />
<glyph unicode="&#xee;" horiz-adv-x="502" d="M50 1208l301 361h207l146 -361h-140l-129 238l-231 -238h-154zM55 0l221 1049h170l-221 -1049h-170z" />
<glyph unicode="&#xef;" horiz-adv-x="502" d="M55 0l221 1049h170l-221 -1049h-170zM99 1274q0 6 1.5 16.5t4.5 22.5t6.5 24t8.5 21q14 32 39 47.5t73 15.5q51 0 71 -16.5t20 -50.5q0 -9 -2 -21.5t-5 -25t-7.5 -23.5t-8.5 -18q-17 -32 -42 -45t-69 -13q-52 0 -71 17.5t-19 48.5zM486 1274q0 6 1.5 16.5t4.5 22.5 t6.5 24t8.5 21q14 32 39.5 47.5t73.5 15.5q51 0 70.5 -16.5t19.5 -50.5q0 -9 -2 -21.5t-5 -25t-7.5 -23.5t-8.5 -18q-17 -32 -42 -45t-68 -13q-53 0 -72 17.5t-19 48.5z" />
<glyph unicode="&#xf0;" horiz-adv-x="1135" d="M92 375q0 27 4 63.5t12.5 78.5t22 88.5t33.5 92.5q34 80 81 145t106 110.5t131.5 70.5t158.5 25q59 0 111.5 -19.5t97.5 -62.5q-7 42 -22.5 90t-35 93t-40.5 83.5t-39 62.5l-209 -108l-41 80l199 102q-15 20 -33 41.5t-36.5 41.5t-36 37.5t-32.5 29.5h172q22 -16 46 -40 t42 -44l160 80l41 -78l-139 -72q45 -56 82 -125.5t64 -150.5t42 -172.5t15 -190.5t-20.5 -210t-74.5 -226q-32 -68 -75 -126.5t-103 -102t-139.5 -68.5t-185.5 -25q-181 0 -270 102.5t-89 303.5zM266 356q0 -56 10.5 -100t35.5 -74.5t67 -46.5t104 -16q104 0 184.5 58.5 t125.5 158.5q32 75 51.5 161.5t19.5 174.5q0 103 -52.5 165t-164.5 62q-54 0 -101 -16.5t-87 -47t-71.5 -73t-53.5 -94.5q-31 -75 -49.5 -151t-18.5 -161z" />
<glyph unicode="&#xf1;" horiz-adv-x="1141" d="M55 0l221 1049h170l-32 -156q44 40 90.5 74.5t94 59t96.5 38.5t98 14q67 0 112.5 -18t73.5 -50t40.5 -76t12.5 -95q0 -37 -8.5 -93t-24.5 -129l-129 -618h-168l132 618q12 57 19 105t7 96q0 47 -25.5 75t-80.5 28q-79 0 -175 -48t-196 -133l-158 -741h-170zM340 1221 q34 131 103.5 196.5t160.5 65.5q58 0 95.5 -22t66 -49t54.5 -49t61 -22q49 0 83 37t48 92h119q-31 -124 -98 -193t-175 -69q-46 0 -77.5 10.5t-55 26.5t-40 34t-32 34t-32.5 26.5t-39 10.5q-42 0 -74 -33.5t-49 -95.5h-119z" />
<glyph unicode="&#xf2;" horiz-adv-x="1135" d="M92 379q0 54 10.5 121t33.5 138.5t59.5 141.5t89.5 129q33 38 72.5 69t87 53.5t102.5 35t119 12.5q179 0 277.5 -101t98.5 -306q0 -62 -11.5 -135.5t-37 -148.5t-66 -146.5t-98.5 -128.5q-65 -65 -151.5 -104.5t-200.5 -39.5q-105 0 -178.5 26.5t-119 78t-66.5 128 t-21 177.5zM266 369q0 -65 12 -112.5t38.5 -78t68.5 -45t102 -14.5q72 0 129.5 29.5t102.5 80.5q35 40 63 93t47 112t29 120.5t10 117.5q0 133 -53.5 195.5t-165.5 62.5q-81 0 -144 -37.5t-108 -97.5q-31 -41 -55 -93t-41 -108t-26 -114t-9 -111zM474 1569h217l113 -361 h-121z" />
<glyph unicode="&#xf3;" horiz-adv-x="1135" d="M92 379q0 54 10.5 121t33.5 138.5t59.5 141.5t89.5 129q33 38 72.5 69t87 53.5t102.5 35t119 12.5q179 0 277.5 -101t98.5 -306q0 -62 -11.5 -135.5t-37 -148.5t-66 -146.5t-98.5 -128.5q-65 -65 -151.5 -104.5t-200.5 -39.5q-105 0 -178.5 26.5t-119 78t-66.5 128 t-21 177.5zM266 369q0 -65 12 -112.5t38.5 -78t68.5 -45t102 -14.5q72 0 129.5 29.5t102.5 80.5q35 40 63 93t47 112t29 120.5t10 117.5q0 133 -53.5 195.5t-165.5 62.5q-81 0 -144 -37.5t-108 -97.5q-31 -41 -55 -93t-41 -108t-26 -114t-9 -111zM576 1208l240 361h242 l-332 -361h-150z" />
<glyph unicode="&#xf4;" horiz-adv-x="1135" d="M92 379q0 54 10.5 121t33.5 138.5t59.5 141.5t89.5 129q33 38 72.5 69t87 53.5t102.5 35t119 12.5q179 0 277.5 -101t98.5 -306q0 -62 -11.5 -135.5t-37 -148.5t-66 -146.5t-98.5 -128.5q-65 -65 -151.5 -104.5t-200.5 -39.5q-105 0 -178.5 26.5t-119 78t-66.5 128 t-21 177.5zM266 369q0 -65 12 -112.5t38.5 -78t68.5 -45t102 -14.5q72 0 129.5 29.5t102.5 80.5q35 40 63 93t47 112t29 120.5t10 117.5q0 133 -53.5 195.5t-165.5 62.5q-81 0 -144 -37.5t-108 -97.5q-31 -41 -55 -93t-41 -108t-26 -114t-9 -111zM366 1208l301 361h207 l146 -361h-140l-129 238l-231 -238h-154z" />
<glyph unicode="&#xf5;" horiz-adv-x="1135" d="M92 379q0 54 10.5 121t33.5 138.5t59.5 141.5t89.5 129q33 38 72.5 69t87 53.5t102.5 35t119 12.5q179 0 277.5 -101t98.5 -306q0 -62 -11.5 -135.5t-37 -148.5t-66 -146.5t-98.5 -128.5q-65 -65 -151.5 -104.5t-200.5 -39.5q-105 0 -178.5 26.5t-119 78t-66.5 128 t-21 177.5zM266 369q0 -65 12 -112.5t38.5 -78t68.5 -45t102 -14.5q72 0 129.5 29.5t102.5 80.5q35 40 63 93t47 112t29 120.5t10 117.5q0 133 -53.5 195.5t-165.5 62.5q-81 0 -144 -37.5t-108 -97.5q-31 -41 -55 -93t-41 -108t-26 -114t-9 -111zM336 1221 q34 131 103.5 196.5t160.5 65.5q58 0 95.5 -22t66 -49t54.5 -49t61 -22q49 0 83 37t48 92h119q-31 -124 -98 -193t-175 -69q-46 0 -77.5 10.5t-55 26.5t-40 34t-32 34t-32.5 26.5t-39 10.5q-42 0 -74 -33.5t-49 -95.5h-119z" />
<glyph unicode="&#xf6;" horiz-adv-x="1135" d="M92 379q0 54 10.5 121t33.5 138.5t59.5 141.5t89.5 129q33 38 72.5 69t87 53.5t102.5 35t119 12.5q179 0 277.5 -101t98.5 -306q0 -62 -11.5 -135.5t-37 -148.5t-66 -146.5t-98.5 -128.5q-65 -65 -151.5 -104.5t-200.5 -39.5q-105 0 -178.5 26.5t-119 78t-66.5 128 t-21 177.5zM266 369q0 -65 12 -112.5t38.5 -78t68.5 -45t102 -14.5q72 0 129.5 29.5t102.5 80.5q35 40 63 93t47 112t29 120.5t10 117.5q0 133 -53.5 195.5t-165.5 62.5q-81 0 -144 -37.5t-108 -97.5q-31 -41 -55 -93t-41 -108t-26 -114t-9 -111zM424 1274q0 6 1.5 16.5 t4.5 22.5t6.5 24t8.5 21q14 32 39 47.5t73 15.5q51 0 71 -16.5t20 -50.5q0 -9 -2 -21.5t-5 -25t-7.5 -23.5t-8.5 -18q-17 -32 -42 -45t-69 -13q-52 0 -71 17.5t-19 48.5zM811 1274q0 6 1.5 16.5t4.5 22.5t6.5 24t8.5 21q14 32 39.5 47.5t73.5 15.5q51 0 70.5 -16.5 t19.5 -50.5q0 -9 -2 -21.5t-5 -25t-7.5 -23.5t-8.5 -18q-17 -32 -42 -45t-68 -13q-53 0 -72 17.5t-19 48.5z" />
<glyph unicode="&#xf7;" horiz-adv-x="1427" d="M184 514v143h1100v-143h-1100zM643 43v180h180v-180h-180zM643 948v180h180v-180h-180z" />
<glyph unicode="&#xf8;" horiz-adv-x="1135" d="M-27 -76l172 197q-53 96 -53 258q0 58 12 132.5t39.5 152.5t71.5 152.5t108 133t149 94t194 35.5q77 0 139 -19.5t110 -60.5l109 125h152l-187 -213q25 -48 39 -107.5t14 -131.5q0 -64 -12.5 -141t-40.5 -155t-72 -151.5t-107 -130t-145.5 -91t-187.5 -34.5 q-83 0 -146 17t-108 49l-98 -111h-152zM266 369q0 -28 1.5 -53.5t6.5 -47.5l531 606q-26 26 -64 41t-88 15q-69 0 -124.5 -27t-98.5 -71.5t-74 -102.5t-51 -120.5t-29.5 -124.5t-9.5 -115zM334 162q49 -43 149 -43q64 0 117.5 24.5t96 66t75 96.5t54 116.5t32 125.5 t10.5 124q0 25 -1.5 47.5t-6.5 44.5z" />
<glyph unicode="&#xf9;" horiz-adv-x="1141" d="M106 209q0 37 9 93t24 128l129 619h168l-129 -619q-12 -57 -20 -103.5t-8 -88.5q0 -60 25 -85.5t79 -25.5q80 0 176.5 47.5t196.5 132.5l157 742h170l-221 -1049h-170l33 156q-45 -41 -91 -75.5t-94 -59t-96.5 -38.5t-97.5 -14q-67 0 -112.5 18t-74 50.5t-41 76.5 t-12.5 95zM464 1569h217l113 -361h-121z" />
<glyph unicode="&#xfa;" horiz-adv-x="1141" d="M106 209q0 37 9 93t24 128l129 619h168l-129 -619q-12 -57 -20 -103.5t-8 -88.5q0 -60 25 -85.5t79 -25.5q80 0 176.5 47.5t196.5 132.5l157 742h170l-221 -1049h-170l33 156q-45 -41 -91 -75.5t-94 -59t-96.5 -38.5t-97.5 -14q-67 0 -112.5 18t-74 50.5t-41 76.5 t-12.5 95zM570 1208l240 361h242l-332 -361h-150z" />
<glyph unicode="&#xfb;" horiz-adv-x="1141" d="M106 209q0 37 9 93t24 128l129 619h168l-129 -619q-12 -57 -20 -103.5t-8 -88.5q0 -60 25 -85.5t79 -25.5q80 0 176.5 47.5t196.5 132.5l157 742h170l-221 -1049h-170l33 156q-45 -41 -91 -75.5t-94 -59t-96.5 -38.5t-97.5 -14q-67 0 -112.5 18t-74 50.5t-41 76.5 t-12.5 95zM368 1208l301 361h207l146 -361h-140l-129 238l-231 -238h-154z" />
<glyph unicode="&#xfc;" horiz-adv-x="1141" d="M106 209q0 37 9 93t24 128l129 619h168l-129 -619q-12 -57 -20 -103.5t-8 -88.5q0 -60 25 -85.5t79 -25.5q80 0 176.5 47.5t196.5 132.5l157 742h170l-221 -1049h-170l33 156q-45 -41 -91 -75.5t-94 -59t-96.5 -38.5t-97.5 -14q-67 0 -112.5 18t-74 50.5t-41 76.5 t-12.5 95zM417 1274q0 6 1.5 16.5t4.5 22.5t6.5 24t8.5 21q14 32 39 47.5t73 15.5q51 0 71 -16.5t20 -50.5q0 -9 -2 -21.5t-5 -25t-7.5 -23.5t-8.5 -18q-17 -32 -42 -45t-69 -13q-52 0 -71 17.5t-19 48.5zM804 1274q0 6 1.5 16.5t4.5 22.5t6.5 24t8.5 21q14 32 39.5 47.5 t73.5 15.5q51 0 70.5 -16.5t19.5 -50.5q0 -9 -2 -21.5t-5 -25t-7.5 -23.5t-8.5 -18q-17 -32 -42 -45t-68 -13q-53 0 -72 17.5t-19 48.5z" />
<glyph unicode="&#xfd;" horiz-adv-x="1020" d="M-184 -365l63 138q22 -11 50.5 -18t60.5 -7q37 0 70.5 12t66 39t66.5 71.5t73 109.5l56 90l-164 979h172l119 -783l448 783h186l-677 -1129q-53 -87 -98.5 -147t-93.5 -97.5t-103.5 -54t-126.5 -16.5q-23 0 -46.5 2.5t-45.5 6.5t-41.5 9.5t-34.5 11.5zM541 1208l240 361 h242l-332 -361h-150z" />
<glyph unicode="&#xfe;" d="M-29 -395l400 1884h170l-115 -545q34 28 71 53t77.5 43t84.5 28.5t93 10.5q83 0 142 -24.5t96.5 -72t55 -116.5t17.5 -159q0 -68 -13 -149.5t-41 -163.5t-71.5 -158.5t-104 -136t-139 -95t-176.5 -35.5q-93 0 -159 30.5t-115 86.5l-103 -481h-170zM274 236 q50 -54 106.5 -83.5t133.5 -29.5q61 0 112.5 27.5t92.5 73.5t71.5 106t51.5 125.5t31 131.5t10 124q0 115 -40 165t-126 50q-45 0 -89.5 -11.5t-85.5 -30t-79 -43t-70 -50.5z" />
<glyph unicode="&#xff;" horiz-adv-x="1020" d="M-184 -365l63 138q22 -11 50.5 -18t60.5 -7q37 0 70.5 12t66 39t66.5 71.5t73 109.5l56 90l-164 979h172l119 -783l448 783h186l-677 -1129q-53 -87 -98.5 -147t-93.5 -97.5t-103.5 -54t-126.5 -16.5q-23 0 -46.5 2.5t-45.5 6.5t-41.5 9.5t-34.5 11.5zM377 1274 q0 6 1.5 16.5t4.5 22.5t6.5 24t8.5 21q14 32 39 47.5t73 15.5q51 0 71 -16.5t20 -50.5q0 -9 -2 -21.5t-5 -25t-7.5 -23.5t-8.5 -18q-17 -32 -42 -45t-69 -13q-52 0 -71 17.5t-19 48.5zM764 1274q0 6 1.5 16.5t4.5 22.5t6.5 24t8.5 21q14 32 39.5 47.5t73.5 15.5 q51 0 70.5 -16.5t19.5 -50.5q0 -9 -2 -21.5t-5 -25t-7.5 -23.5t-8.5 -18q-17 -32 -42 -45t-68 -13q-53 0 -72 17.5t-19 48.5z" />
<glyph unicode="&#x152;" horiz-adv-x="1794" d="M117 469q0 88 16 192t51.5 209t92 203t136.5 173.5t186 121t241 45.5q62 0 131 -9t125 -20h757l-34 -167h-598l-86 -404h520l-35 -168h-520l-103 -477h598l-34 -168h-756q-26 -7 -51 -12.5t-51 -9t-55.5 -5.5t-65.5 -2q-132 0 -221 35.5t-143 100.5t-77.5 157t-23.5 205z M311 465q0 -84 14 -146.5t47 -103t87 -60.5t133 -20q62 0 119.5 8t105.5 27l225 1047q-18 10 -43.5 16t-55.5 9.5t-62.5 5t-63.5 1.5q-98 0 -173.5 -40.5t-131.5 -106.5t-94.5 -150.5t-62 -171.5t-34 -169.5t-10.5 -145.5z" />
<glyph unicode="&#x153;" horiz-adv-x="1784" d="M92 379q0 58 12 132.5t39.5 152.5t71.5 152.5t108 133t149 94t194 35.5q121 0 203 -49t120 -149q33 46 72.5 83t88.5 62.5t107 39t129 13.5q82 0 144.5 -23.5t104 -66t62.5 -103t21 -134.5q0 -10 -1.5 -29t-3.5 -41t-5 -44t-6 -38l-21 -96h-671q-10 -47 -15.5 -88 t-5.5 -78q0 -63 13.5 -105t42 -67.5t72 -36t104.5 -10.5q68 0 134 35t128 100l106 -98q-78 -89 -171.5 -138t-217.5 -49q-137 0 -224 47t-124 146q-34 -43 -74.5 -78.5t-87.5 -61t-100.5 -39.5t-112.5 -14q-103 0 -176 26.5t-119.5 78t-68 128t-21.5 177.5zM266 369 q0 -62 11.5 -108.5t37.5 -78t67 -47.5t101 -16q64 0 117.5 24.5t96 66t75 96.5t54 116.5t32 125.5t10.5 124q0 125 -51.5 191.5t-163.5 66.5q-69 0 -124.5 -27t-98.5 -71.5t-74 -102.5t-51 -120.5t-29.5 -124.5t-9.5 -115zM1040 639h502q12 58 12 109q0 91 -45 139.5 t-145 48.5q-71 0 -125.5 -24t-97.5 -76q-57 -71 -101 -197z" />
<glyph unicode="&#x178;" horiz-adv-x="1124" d="M223 1384h189l180 -673l463 673h211l-611 -849l-112 -535h-185l111 526zM499 1610q0 6 1.5 16.5t4.5 22.5t6.5 24t8.5 21q14 32 39 47.5t73 15.5q51 0 71 -16.5t20 -50.5q0 -9 -2 -21.5t-5 -25t-7.5 -23.5t-8.5 -18q-17 -32 -42 -45t-69 -13q-52 0 -71 17.5t-19 48.5z M886 1610q0 6 1.5 16.5t4.5 22.5t6.5 24t8.5 21q14 32 39.5 47.5t73.5 15.5q51 0 70.5 -16.5t19.5 -50.5q0 -9 -2 -21.5t-5 -25t-7.5 -23.5t-8.5 -18q-17 -32 -42 -45t-68 -13q-53 0 -72 17.5t-19 48.5z" />
<glyph unicode="&#x2c6;" horiz-adv-x="1063" d="M350 1208l301 361h207l146 -361h-140l-129 238l-231 -238h-154z" />
<glyph unicode="&#x2dc;" horiz-adv-x="1063" d="M309 1221q34 131 103.5 196.5t160.5 65.5q58 0 95.5 -22t66 -49t54.5 -49t61 -22q49 0 83 37t48 92h119q-31 -124 -98 -193t-175 -69q-46 0 -77.5 10.5t-55 26.5t-40 34t-32 34t-32.5 26.5t-39 10.5q-42 0 -74 -33.5t-49 -95.5h-119z" />
<glyph unicode="&#x2000;" horiz-adv-x="952" />
<glyph unicode="&#x2001;" horiz-adv-x="1905" />
<glyph unicode="&#x2002;" horiz-adv-x="952" />
<glyph unicode="&#x2003;" horiz-adv-x="1905" />
<glyph unicode="&#x2004;" horiz-adv-x="635" />
<glyph unicode="&#x2005;" horiz-adv-x="476" />
<glyph unicode="&#x2006;" horiz-adv-x="317" />
<glyph unicode="&#x2007;" horiz-adv-x="317" />
<glyph unicode="&#x2008;" horiz-adv-x="238" />
<glyph unicode="&#x2009;" horiz-adv-x="381" />
<glyph unicode="&#x200a;" horiz-adv-x="105" />
<glyph unicode="&#x2010;" horiz-adv-x="811" d="M82 440l37 172h610l-37 -172h-610z" />
<glyph unicode="&#x2011;" horiz-adv-x="811" d="M82 440l37 172h610l-37 -172h-610z" />
<glyph unicode="&#x2012;" horiz-adv-x="811" d="M82 440l37 172h610l-37 -172h-610z" />
<glyph unicode="&#x2013;" horiz-adv-x="1063" d="M37 455l31 143h962l-31 -143h-962z" />
<glyph unicode="&#x2014;" horiz-adv-x="2066" d="M37 455l31 143h1966l-31 -143h-1966z" />
<glyph unicode="&#x2018;" horiz-adv-x="545" d="M246 967q0 35 13.5 86t41.5 114q31 73 70 129.5t71 87.5h103q-29 -29 -53.5 -70t-43 -82.5t-30.5 -76t-15 -49.5q47 0 69 -16.5t22 -53.5q0 -10 -2 -23t-5.5 -26t-7.5 -24.5t-8 -18.5q-8 -15 -17 -26.5t-22.5 -19.5t-33.5 -12.5t-48 -4.5q-56 0 -80 22t-24 64z" />
<glyph unicode="&#x2019;" horiz-adv-x="545" d="M250 909q29 29 53.5 70.5t43 83t30 76t14.5 49.5q-46 0 -68 16t-22 53q0 10 2 23t5.5 26.5t7.5 25t8 18.5q7 15 16.5 26.5t23 19.5t33 12.5t47.5 4.5q56 0 80.5 -22t24.5 -64q0 -73 -55 -201q-31 -72 -70.5 -129t-71.5 -88h-102z" />
<glyph unicode="&#x201a;" horiz-adv-x="545" d="M4 -293q29 29 53.5 70.5t43 83t30 76t14.5 49.5q-46 0 -68 16t-22 53q0 10 2 23t5.5 26t7.5 24.5t8 18.5q7 15 16.5 26.5t23 20t33 13t48.5 4.5q55 0 79.5 -22t24.5 -64q0 -35 -14.5 -88t-40.5 -113q-13 -30 -30 -61.5t-36 -60.5t-38.5 -53.5t-37.5 -41.5h-102z" />
<glyph unicode="&#x201c;" horiz-adv-x="946" d="M246 967q0 35 13.5 86t41.5 114q31 73 70 129.5t71 87.5h103q-29 -29 -53.5 -70t-43 -82.5t-30.5 -76t-15 -49.5q47 0 69 -16.5t22 -53.5q0 -10 -2 -23t-5.5 -26t-7.5 -24.5t-8 -18.5q-8 -15 -17 -26.5t-22.5 -19.5t-33.5 -12.5t-48 -4.5q-56 0 -80 22t-24 64zM649 967 q0 73 56 200q30 73 69.5 129.5t71.5 87.5h102q-29 -29 -53.5 -70t-43 -82.5t-30 -76t-14.5 -49.5q46 0 68 -16.5t22 -53.5q0 -10 -2 -23t-5.5 -26t-7.5 -24.5t-8 -18.5q-8 -15 -17 -26.5t-22.5 -19.5t-33 -12.5t-47.5 -4.5q-56 0 -80.5 22t-24.5 64z" />
<glyph unicode="&#x201d;" horiz-adv-x="946" d="M250 909q29 29 53.5 70.5t43 83t30 76t14.5 49.5q-46 0 -68 16t-22 53q0 10 2 23t5.5 26.5t7.5 25t8 18.5q7 15 16.5 26.5t23 19.5t33 12.5t47.5 4.5q56 0 80.5 -22t24.5 -64q0 -73 -55 -201q-31 -72 -70.5 -129t-71.5 -88h-102zM651 909q29 29 53.5 70.5t43 83t30.5 76 t15 49.5q-47 0 -69 16t-22 53q0 10 2 23t5.5 26.5t7.5 25t8 18.5q7 15 16.5 26.5t23 19.5t33 12.5t48.5 4.5q56 0 80 -22t24 -64q0 -35 -13.5 -86.5t-41.5 -114.5q-31 -72 -70 -129t-71 -88h-103z" />
<glyph unicode="&#x201e;" horiz-adv-x="946" d="M4 -293q29 29 53.5 70.5t43 83t30 76t14.5 49.5q-46 0 -68 16t-22 53q0 10 2 23t5.5 26t7.5 24.5t8 18.5q7 15 16.5 26.5t23 20t33 13t48.5 4.5q55 0 79.5 -22t24.5 -64q0 -31 -13.5 -84.5t-41.5 -116.5q-31 -72 -70 -129t-72 -88h-102zM406 -293q29 29 53.5 70.5t43 83 t30 76t14.5 49.5q-47 0 -68.5 16t-21.5 53q0 10 2 23t5 26t7 24.5t8 18.5q8 15 17 26.5t22.5 20t33 13t48.5 4.5q56 0 80.5 -22t24.5 -64q0 -17 -4 -40t-11.5 -49.5t-18 -55t-22.5 -56.5q-31 -72 -70 -129t-71 -88h-102z" />
<glyph unicode="&#x2022;" horiz-adv-x="774" d="M182 745q0 55 21 102t56 82t82 55t99 20t99 -20t81.5 -55t55 -82t20.5 -102q0 -53 -20 -99.5t-54.5 -81.5t-81.5 -55t-100 -20q-54 0 -101 20t-82 55t-55 81.5t-20 99.5z" />
<glyph unicode="&#x2026;" horiz-adv-x="2048" d="M143 57q0 20 6 43t15 43q15 35 45.5 51.5t81.5 16.5q54 0 78 -17.5t24 -54.5q0 -23 -5 -46.5t-17 -45.5q-19 -34 -50 -47.5t-77 -13.5q-56 0 -78.5 18.5t-22.5 52.5zM825 57q0 20 6 43t15 43q15 35 45.5 51.5t81.5 16.5q54 0 78 -17.5t24 -54.5q0 -23 -5 -46.5t-17 -45.5 q-19 -34 -50 -47.5t-77 -13.5q-56 0 -78.5 18.5t-22.5 52.5zM1507 57q0 20 6 43t15 43q15 35 45.5 51.5t81.5 16.5q54 0 78 -17.5t24 -54.5q0 -23 -5 -46.5t-17 -45.5q-19 -34 -50 -47.5t-77 -13.5q-56 0 -78.5 18.5t-22.5 52.5z" />
<glyph unicode="&#x202f;" horiz-adv-x="381" />
<glyph unicode="&#x2039;" horiz-adv-x="721" d="M70 524l485 471h199l-492 -481l283 -461h-191z" />
<glyph unicode="&#x203a;" horiz-adv-x="721" d="M-33 53l492 482l-283 460h191l284 -471l-485 -471h-199z" />
<glyph unicode="&#x205f;" horiz-adv-x="476" />
<glyph unicode="&#x20ac;" horiz-adv-x="1153" d="M29 514l63 119h53q5 26 12 59.5t15 59.5h-92l61 118h62q21 64 49.5 129.5t66 125.5t85 112t107 91t132.5 61t162 22q90 0 155 -19.5t112.5 -54t80.5 -83.5t59 -107l-157 -92q-20 46 -43 82.5t-54 61.5t-73.5 38.5t-102.5 13.5q-75 0 -135 -27t-108 -76.5t-85.5 -120 t-66.5 -157.5h541l-64 -118h-514q-8 -28 -14.5 -59t-11.5 -60h487l-63 -119h-439q-3 -29 -4.5 -53.5t-1.5 -48.5q0 -140 60.5 -210.5t181.5 -70.5q67 0 119.5 14.5t95.5 41t80 64t75 83.5l127 -103q-42 -52 -87.5 -99t-103 -82t-131.5 -56t-173 -21q-112 0 -192.5 32 t-132 90t-75.5 140t-24 183q0 23 1.5 46.5t4.5 49.5h-100z" />
<glyph unicode="&#x2122;" horiz-adv-x="1575" d="M180 1257l27 127h571l-26 -127h-215l-125 -587h-140l125 587h-217zM782 670l152 714h153l99 -344l250 344h161l-151 -714h-133l102 483l-221 -301h-86l-88 299l-102 -481h-136z" />
<glyph unicode="&#x25fc;" horiz-adv-x="1050" d="M0 0v1050h1050v-1050h-1050z" />
</font>
</defs>
</svg>
